SplineFontDB: 3.2
FontName: sachacHand
FullName: sachacHand
FamilyName: sachacFonts
Weight: Regular

StartChar: H
Encoding: 72 72 0
Width: 371
VWidth: 0
Flags: W
HStem: 5 21G<45.5 54.5> 344 16<59.3289 174.501 177.594 306.531> 350 18<83.4986 306.531> 650 20G<53.5 61.5>
VStem: 40 21<5.61914 208.281 588.749 659.246> 47 14<22.5646 344 362.328 631.156> 311 15<154.188 349.531 366.235 536.578 538.313 644.281> 316 15<255.986 343.782 383.47 652.163>
LayerCount: 2
Back
Fore
SplineSet
277 344 m 0xd2
 250 344 226 350 197 350 c 0xb2
 151 350 105 345 59 344 c 1
 59 298 59 252 62 206 c 0
 63 185 64 163 64 141 c 0
 64 116 64 90 61 66 c 0
 60 60 60 5 49 5 c 0
 42 5 40 13 40 22 c 0xda
 40 34 43 49 44 54 c 0
 46 84 47 114 47 144 c 2
 47 518 l 2
 47 541 48 565 48 588 c 0
 48 604 48 619 46 634 c 0
 46 638 45 642 45 646 c 0
 45 657 48 668 59 670 c 1
 64 660 65 646 65 632 c 0
 65 614 63 596 63 582 c 0
 63 554 63 526 63 498 c 0
 63 470 63 442 61 414 c 2
 61 384 l 2
 61 376 61 369 59 362 c 1
 66 361 74 360 82 360 c 0xd4
 114 360 144 368 176 368 c 0xb4
 210 368 244 362 277 360 c 0
 278 360 279 360 280 360 c 0
 289 360 297 364 306 364 c 0
 307 364 308 364 309 364 c 2
 311 366 l 1
 309 371 309 377 309 383 c 0
 309 393 310 405 311 414 c 0xd6
 312 446 313 478 315 510 c 0
 315 519 316 528 316 537 c 0
 316 565 314 594 313 622 c 0
 313 627 310 636 310 644 c 0
 310 650 312 655 317 655 c 0
 328 656 328 637 329 630 c 0
 331 602 331 572 331 544 c 0xd1
 331 480 327 416 326 352 c 2
 326 274 l 2
 326 241 325 208 322 175 c 0
 318 138 317 101 312 64 c 0
 311 58 307 0 297 0 c 0
 291 0 290 7 290 17 c 0
 290 56 299 75 301 110 c 0
 304 165 308 219 309 274 c 0
 310 287 311 302 311 317 c 0
 311 329 310 340 307 350 c 1xb2
 297 345 287 344 277 344 c 0xd2
EndSplineSet
EndChar

StartChar: e
Encoding: 101 101 1
Width: 381
VWidth: 0
Flags: W
HStem: 4 16<143.152 261.655> 242 20<235.343 322.819> 352 17<172.67 262.087>
VStem: 40 16<118.955 237.896> 323 18<260.282 300.468>
LayerCount: 2
Back
Fore
SplineSet
323 262 m 1
 319 277 322 290 312 304 c 0
 288 338 254 352 219 352 c 0
 153 352 83 301 64 238 c 0
 59 221 56 200 56 179 c 0
 56 131 70 78 100 50 c 0
 118 33 142 27 166 23 c 0
 177 21 189 20 201 20 c 0
 234 20 267 27 297 40 c 0
 300 41 315 49 323 49 c 0
 327 49 329 48 329 44 c 2
 329 42 l 2
 328 36 320 33 315 30 c 0
 282 14 240 4 193 4 c 0
 144 4 96 17 71 60 c 0
 51 94 40 139 40 184 c 0
 40 226 50 267 74 298 c 0
 106 339 163 364 214 369 c 0
 217 369 220 369 223 369 c 0
 275 369 341 326 341 271 c 0
 341 265 340 258 338 252 c 0
 336 243 318 242 303 242 c 2
 287 242 l 2
 235 240 181 229 130 219 c 0
 124 218 99 210 84 210 c 0
 77 210 73 212 73 216 c 0
 73 230 120 234 131 236 c 0
 173 244 216 250 258 255 c 0
 279 258 302 257 323 262 c 1
EndSplineSet
EndChar

StartChar: n
Encoding: 110 110 2
Width: 360
VWidth: 0
Flags: W
HStem: 348 15<160.969 234.604>
VStem: 50 14<173.423 347.953> 52 17<-16.8384 358.894> 292 18<-17.5259 192.584>
LayerCount: 2
Back
Fore
SplineSet
299 -18 m 4xd0
 284 -18 292 56 292 71 c 4
 292 79 293.134765625 87.0009765625 293 94 c 4
 292 146 284.412109375 241.190429688 274 292 c 4
 269.711914062 312.92578125 261.997070312 334.450195312 231 345 c 4
 228.005859375 346.018554688 188 348 185 348 c 4
 166 348 147 332 134 321 c 4
 92 284 77 167 74 113 c 4
 73 94 72 76 72 57 c 4
 72 56 69 -4 69 -5 c 4
 69 -10 68 -15 63 -17 c 6
 61 -17 l 6
 53 -17 52 39 52 71 c 4
 52 83 52 92 52 98 c 6
 52 109 l 6xb0
 51 152 50 224 50 266 c 6
 50 323 l 6xd0
 50 338 51 357 60 359 c 4
 61 359 61 360 62 360 c 4
 67 360 70 353 70 348 c 4
 70 347 69 346 69 345 c 4xb0
 67 322 66 300 66 277 c 4
 66 263 64 218 64 203 c 4
 64 192 65 182 68 173 c 5
 72 216 98 311 124 335 c 4
 138 348 162 363 185 363 c 4
 208 363 259 356 273 331 c 4
 296 290 302 181 306 135 c 4
 308 113 310 91 310 69 c 4
 310 65 307 3 307 -2 c 4
 307 -10 305 -18 299 -18 c 4xd0
EndSplineSet
EndChar

StartChar: A
Encoding: 65 65 3
Width: 593
VWidth: 0
Flags: W
HStem: 4 16<139.793 220.956> 637 15<257.86 332.063>
VStem: 40 15<168.491 323.537> 406 12<216.134 404.047> 418 21<463.979 560.818>
LayerCount: 2
Back
Fore
SplineSet
291 637 m 0xe8
 238 637 199 583 169 548 c 0
 97 464 55 356 55 246 c 0
 55 214 59 182 66 150 c 0
 79 94 102 20 176 20 c 0
 232 20 274 50 301 90 c 0
 354 170 389 279 402 374 c 0
 405 397 406 421 406 444 c 0xf0
 406 471 418 501 418 527 c 0
 418 592 348 637 291 637 c 0xe8
438 501 m 0
 438 447 417 400 417 344 c 0
 417 332 418 320 418 307 c 0
 418 256 423 203 435 158 c 0
 449 108 478 54 521 24 c 0
 525 21 553 9 553 0 c 0
 553 -11 531 -2 527 0 c 0
 459 36 406 129 406 213 c 2
 406 253 l 2
 406 271 406 289 401 306 c 1
 401 250 368 189 346 138 c 0
 339 123 330 108 322 94 c 0
 294 45 237 4 174 4 c 0
 94 4 65 75 52 135 c 0
 44 171 40 208 40 244 c 0
 40 352 75 458 145 544 c 0
 183 591 230 652 295 652 c 0
 344 652 384 627 406 598 c 0xf0
 418 582 432 558 438 539 c 0
 439 535 439 531 439 527 c 0xe8
 439 518 438 509 438 501 c 0
EndSplineSet
Validated: 1
EndChar

StartChar: M
Encoding: 77 77 4
Width: 604
VWidth: 0
Flags: W
HStem: 647 20G<512.5 528>
VStem: 40 42<620.344 662> 61 16<27.4695 411.516> 65 19<258.484 590 601.415 614.671 644 670.903> 531 16<261.713 568.332> 546 18<-9.88525 171.796>
LayerCount: 2
Back
Fore
SplineSet
277 318 m 1xc0
 304 376 339 432 376 484 c 0
 414 537 440 567 478 620 c 0
 486 632 504 667 521 667 c 2
 523 667 l 2
 533 665 531 648 532 640 c 0
 535 609 540 571 542 540 c 0
 545 492 545 474 547 426 c 0xc8
 550 342 557 258 557 174 c 0
 557 127 561 79 563 32 c 0
 563 29 564 21 564 13 c 0
 564 2 562 -10 554 -10 c 0
 548 -10 546 0 546 10 c 0x84
 546 17 547 24 547 27 c 0
 546 67 545 106 542 146 c 0
 535 240 532 337 531 432 c 0
 530 509 524 565 515 642 c 1
 433 537 361 444 298 322 c 0
 294 315 289 298 280 296 c 0
 272 294 265 306 261 310 c 0
 246 325 230 338 218 356 c 0
 194 393 175 434 152 472 c 0
 129 510 101 549 83 590 c 1
 81 590 l 1
 83 572 84 554 84 535 c 0x98
 84 495 80 453 79 414 c 0
 77 361 77 309 77 256 c 0
 77 183 77 111 77 38 c 0
 77 33 76 -4 63 11 c 0
 60 14 59 20 59 27 c 0
 59 37 61 48 61 54 c 2
 61 176 l 2xa0
 61 299 65 421 65 544 c 0x90
 65 557 68 575 68 591 c 0
 68 600 67 608 64 615 c 0
 59 625 40 642 40 655 c 0
 40 656 40 657 40 658 c 0xc0
 45 674 62 648 65 644 c 1x90
 66 651 63 676 77 671 c 0xa0
 82 669 84 662 84 653 c 0x90
 84 644 82 634 82 627 c 0
 82 625 83 622 83 621 c 0
 87 607 100 593 108 580 c 0
 149 511 185 439 228 372 c 0
 241 352 264 338 275 318 c 1
 277 318 l 1xc0
EndSplineSet
Validated: 1
EndChar

StartChar: Y
Encoding: 89 89 5
Width: 420
VWidth: 0
Flags: W
HStem: 8 13<164.327 233.268>
VStem: 40.125 16<544.536 664.945> 352.125 8<457 591> 366.125 14<189.075 385.022>
LayerCount: 2
Back
Fore
SplineSet
344.125 568 m 1
 341.125 527 323.125 481 305.125 444 c 0
 284.125 401 259.125 355 224.125 325 c 0
 179.125 286 136.125 302 105.125 350 c 0
 65.125 412 54.125 493 45.125 565 c 0
 42.125 591 41.125 617 40.125 643 c 0
 40.125 650 38.125 666 50.125 665 c 0
 58.125 664 55.125 652 56.125 646 c 0
 58.125 624 58.125 602 60.125 580 c 0
 65.125 510 78.125 427 115.125 366 c 0
 126.125 348 149.125 317 174.125 317 c 0
 177.125 317 179.125 317 182.125 318 c 0
 210.125 326 232.125 356 248.125 378 c 0
 294.125 443 317.125 518 335.125 594 c 0
 340.125 617 342.125 642 348.125 664 c 0
 350.125 671 359.125 683 366.125 673 c 0
 368.125 670 368.125 667 368.125 664 c 0
 368.125 654 363.125 642 362.125 634 c 0
 361.125 620 360.125 606 360.125 591 c 0
 360.125 573 361.125 554 362.125 538 c 0
 369.125 450 380.125 362 380.125 274 c 0
 380.125 213 373.125 146 343.125 92 c 0
 315.125 41 255.125 8 198.125 8 c 0
 156.125 8 114.125 26 89.125 68 c 0
 85.125 74 87.125 87 97.125 82 c 0
 122.125 70 135.125 39 162.125 28 c 0
 173.125 23 185.125 21 197.125 21 c 0
 252.125 21 313.125 66 334.125 110 c 0
 358.125 160 366.125 216 366.125 274 c 0
 366.125 336 357.125 400 352.125 457 c 0
 349.125 492 354.125 535 344.125 568 c 1
EndSplineSet
EndChar

StartChar: eight
Encoding: 56 56 6
Width: 325
VWidth: 0
Flags: W
HStem: 9 14<152.17 230.864> 646 19<141.297 239.565>
VStem: 40 14<490.533 556.114> 44 17<76.2567 147.232> 243 42<599.095 634.716> 251 16<38.0143 117.143> 262 17<516.344 594.43>
LayerCount: 2
Back
Fore
SplineSet
192 9 m 0xc4
 130 9 44 34 44 108 c 0xd4
 44 163 88 224 115 263 c 0
 124 277 149 299 151 316 c 0
 152 324 141 335 136 341 c 0
 100 389 40 455 40 524 c 0
 40 543 44 563 56 583 c 0
 80 622 129 665 189 665 c 2
 202 665 l 2
 226 662 255 653 272 635 c 0
 277 629 285 619 285 610 c 0xe8
 285 605 282 601 274 599 c 1
 278 588 279 576 279 563 c 0xc2
 279 503 245 431 220 385 c 0
 211 371 204 355 194 341 c 0
 190 335 180 326 179 319 c 0
 178 313 186 304 190 299 c 0
 200 283 211 268 220 251 c 0
 244 204 256 151 263 100 c 0
 265 89 267 76 267 64 c 0
 267 53 265 42 260 32 c 0
 250 14 224 10 204 9 c 0
 200 9 196 9 192 9 c 0xc4
163 333 m 1
 167 333 l 1
 211 403 253 478 262 562 c 1
 262 566 l 2xe2
 262 588 243 607 243 627 c 0
 243 630 243 632 244 635 c 0
 225 642 207 646 189 646 c 0
 144 646 103 624 74 581 c 0
 63 564 54 544 54 524 c 0xe8
 54 521 54 518 55 515 c 0
 65 444 125 390 163 333 c 1
165 303 m 1
 140 272 117 239 98 205 c 0
 83 177 61 141 61 107 c 0
 61 74 80 62 101 49 c 0
 123 37 162 23 196 23 c 0
 212 23 228 26 240 35 c 0
 248 41 251 52 251 65 c 0xd4
 251 81 247 98 245 108 c 0
 233 175 214 253 165 303 c 1
EndSplineSet
EndChar

StartChar: quotesingle
Encoding: 39 39 7
Width: 102
VWidth: 0
Flags: W
HStem: 483 190
VStem: 48.4219 14<503.556 670.097>
LayerCount: 2
Back
Fore
SplineSet
42.421875 659 m 0
 42.421875 667 43.421875 673 50.421875 673 c 0
 61.421875 673 61.421875 642 61.421875 636 c 0
 62.421875 615 62.421875 594 62.421875 573 c 0
 62.421875 555 62.421875 537 60.421875 520 c 0
 59.421875 510 59.421875 488 49.421875 483 c 0
 33.421875 475 42.421875 507 43.421875 512 c 0
 46.421875 535 48.421875 559 48.421875 583 c 0
 48.421875 597 47.421875 612 46.421875 626 c 0
 45.421875 632 42.421875 647 42.421875 659 c 0
EndSplineSet
EndChar

StartChar: numbersign
Encoding: 35 35 8
Width: 482
VWidth: 0
Flags: W
HStem: 270 20<77.4311 169.836> 280 20<323.493 440.592> 434 18<41.4519 125.118> 458 16<184.011 297.118 313.147 406.839>
VStem: 170.118 19<181.411 274 290 435.8 468 522.711> 179.118 17<156.198 272.682> 291.118 16<387.125 458 477.791 597.671> 305.118 22<141.647 281.531>
LayerCount: 2
Back
Fore
SplineSet
327.118164062 157 m 0x71
 327.118164062 148 326.118164062 141 318.118164062 141 c 0
 309.118164062 141 311.118164062 167 310.118164062 172 c 0
 308.118164062 196 305.118164062 224 305.118164062 250 c 0x71
 305.118164062 261 306.118164062 272 307.118164062 282 c 1
 189.118164062 274 l 1x7a
 197.118164062 246 194.118164062 210 196.118164062 180 c 0
 196.118164062 174 199.118164062 148 186.118164062 156 c 0
 179.118164062 160 179.118164062 178 179.118164062 186 c 0x74
 177.118164062 214 180.118164062 247 173.118164062 274 c 1
 150.118164062 269 125.118164062 271 101.118164062 270 c 0
 94.1181640625 270 80.1181640625 266 77.1181640625 275 c 0
 74.1181640625 285 90.1181640625 286 96.1181640625 286 c 0
 112.118164062 287 132.118164062 290 150.118164062 290 c 0
 157.118164062 290 164.118164062 289 170.118164062 288 c 1
 170.118164062 371 l 1
 165.118164062 452 l 1
 135.118164062 442 100.118164062 440 69.1181640625 434 c 0
 62.1181640625 433 38.1181640625 426 40.1181640625 440 c 0
 41.1181640625 450 64.1181640625 451 71.1181640625 452 c 0
 103.118164062 458 135.118164062 462 167.118164062 468 c 1
 162.118164062 501 162.118164062 535 159.118164062 568 c 0
 158.118164062 574 153.118164062 601 167.118164062 598 c 0
 178.118164062 595 175.118164062 574 176.118164062 566 c 0
 180.118164062 533 180.118164062 501 183.118164062 468 c 1
 202.118164062 474 224.118164062 475 246.118164062 475 c 0
 264.118164062 475 281.118164062 474 297.118164062 474 c 1
 290.118164062 506 293.118164062 545 291.118164062 578 c 0
 291.118164062 583 296.118164062 612 307.118164062 597 c 0
 311.118164062 591 307.118164062 577 307.118164062 570 c 0xba
 308.118164062 549 311.118164062 529 311.118164062 508 c 2
 311.118164062 496 l 2
 311.118164062 479 314.118164062 473 331.118164062 473 c 0
 337.118164062 473 343.118164062 474 347.118164062 474 c 0
 371.118164062 473 410.118164062 475 430.118164062 458 c 0
 435.118164062 454 439.118164062 444 429.118164062 443 c 2
 428.118164062 443 l 2
 419.118164062 443 407.118164062 452 397.118164062 454 c 0
 369.118164062 458 341.118164062 458 313.118164062 458 c 1
 321.118164062 296 l 1
 334.118164062 300 349.118164062 300 364.118164062 300 c 2
 393.118164062 300 l 2
 401.118164062 300 409.118164062 300 416.118164062 301 c 0
 423.118164062 302 442.118164062 305 442.118164062 294 c 0
 442.118164062 284 423.118164062 285 416.118164062 285 c 0
 395.118164062 284 371.118164062 280 348.118164062 280 c 0
 339.118164062 280 331.118164062 281 323.118164062 282 c 1
 323.118164062 275 322.118164062 269 322.118164062 262 c 0
 322.118164062 234 325.118164062 205 326.118164062 178 c 0
 326.118164062 173 327.118164062 165 327.118164062 157 c 0x71
183.118164062 454 m 1
 189.118164062 290 l 1
 307.118164062 296 l 1xba
 297.118164062 458 l 1
 183.118164062 454 l 1
EndSplineSet
EndChar

StartChar: less
Encoding: 60 60 9
Width: 319
VWidth: 0
Flags: W
VStem: 40 239
LayerCount: 2
Back
Fore
SplineSet
54 326 m 1
 116 296 176 257 232 218 c 0
 238 214 279 191 279 177 c 0
 279 166 264 173 260 176 c 0
 247 185 235 195 222 204 c 0
 179 234 134 262 88 287 c 0
 73 295 44 305 40 324 c 1
 40 328 l 2
 40 344 62 364 72 374 c 0
 109 414 145 454 179 496 c 0
 189 509 199 522 209 534 c 0
 212 538 217 544 223 540 c 0
 229 536 225 529 222 524 c 0
 213 510 201 497 191 484 c 0
 147 430 95 382 54 326 c 1
EndSplineSet
Validated: 1
EndChar

StartChar: O
Encoding: 79 79 10
Width: 485
VWidth: 0
Flags: W
HStem: 10 16<217.213 279.858> 653 16<161.656 274.379>
VStem: 40 16<205.167 356.037> 427 18<305.225 476.114>
LayerCount: 2
Back
Fore
SplineSet
124 652 m 0
 151 662 181 669 214 669 c 0
 229 669 246 667 262 664 c 0
 344 648 395 611 422 534 c 0
 438 489 445 443 445 396 c 0
 445 329 431 262 411 198 c 0
 389 127 348 26 264 11 c 0
 259 10 255 10 250 10 c 0
 213 10 177 33 149 53 c 0
 130 66 111 82 96 100 c 0
 55 150 40 209 40 271 c 0
 40 346 62 425 81 494 c 0
 93 537 109 560 133 598 c 0
 143 614 161 633 180 637 c 0
 186 638 204 638 198 627 c 0
 194 621 180 620 174 616 c 0
 161 607 150 594 142 580 c 0
 120 543 108 523 95 482 c 0
 75 418 56 347 56 277 c 0
 56 235 63 193 81 154 c 0
 103 105 152 66 199 42 c 0
 215 34 233 26 251 26 c 0
 254 26 258 26 261 27 c 0
 333 42 375 132 393 196 c 0
 411 261 427 330 427 397 c 0
 427 479 404 556 332 617 c 0
 302 642 259 653 218 653 c 0
 181 653 155 643 126 635 c 0
 121 633 112 631 109 637 c 0
 104 646 118 650 124 652 c 0
EndSplineSet
Validated: 1
EndChar

StartChar: b
Encoding: 98 98 11
Width: 344
VWidth: 0
Flags: W
HStem: 1 17<68.424 154.887> 356 15<157.205 209.483>
VStem: 40 19<365 640.648> 54 13<155.171 217.709 244.705 362> 288 16<128.922 234.265>
LayerCount: 2
Back
Fore
SplineSet
288 181 m 0xd8
 288 257 246 356 180 356 c 0
 123 356 76 250 69 195 c 0
 68 186 67 177 67 168 c 0
 67 145 70 122 70 101 c 0
 70 96 70 85 70 73 c 0
 70 55 70 34 68 21 c 1
 77 22 89 18 98 18 c 0
 99 18 101 18 103 18 c 0
 166 18 242 58 274 116 c 0
 284 133 288 156 288 181 c 0xd8
44 105 m 0
 44 147 54 186 54 229 c 0xd8
 54 255 51 282 50 307 c 0
 47 374 44 441 43 508 c 0
 43 542 43 576 42 610 c 0
 42 614 40 623 40 630 c 0
 40 636 41 641 47 641 c 0
 57 641 56 627 57 620 c 0
 59 596 59 572 59 548 c 0xe8
 59 484 64 420 65 356 c 0
 65 338 64 317 64 296 c 0
 64 277 65 259 69 244 c 1
 89 323 141 371 190 371 c 0
 229 371 266 341 286 272 c 0
 296 240 304 207 304 174 c 0
 304 148 299 123 284 100 c 0
 261 65 210 19 170 9 c 0
 150 4 129 1 108 1 c 0
 106 1 104 1 102 1 c 0
 88 1 72 1 61 6 c 0
 58 3 57 2 55 2 c 0
 46 2 45 31 45 51 c 0
 45 52 45 53 45 54 c 0
 45 61 45 67 45 72 c 0
 45 84 44 93 44 105 c 0
EndSplineSet
Validated: 1
EndChar

StartChar: r
Encoding: 114 114 12
Width: 331
VWidth: 0
Flags: W
HStem: 346 17<175.603 251.47>
VStem: 44 20<4.14643 209.397 232.469 363.063>
LayerCount: 2
Back
Fore
SplineSet
62 232 m 1
 71 291 142 357 201 363 c 1
 211 363 l 2
 231 363 255 359 272 350 c 0
 279 346 290 341 291 332 c 0
 292 325 285 324 280 326 c 0
 255 337 234 346 211 346 c 0
 196 346 181 342 164 333 c 0
 72 285 64 185 64 94 c 2
 64 63 l 2
 64 36 62 3 53 3 c 0
 52 3 52 4 51 4 c 0
 45 7 46 18 45 24 c 0
 44 30 44 39 44 48 c 0
 44 67 45 89 45 102 c 0
 45 162 44 222 44 282 c 0
 44 286 43 326 43 338 c 0
 43 351 44 364 50 364 c 2
 52 364 l 2
 61 362 60 345 60 338 c 0
 60 335 60 332 60 329 c 0
 60 317 59 277 59 264 c 0
 59 253 60 242 62 232 c 1
EndSplineSet
EndChar

StartChar: B
Encoding: 66 66 13
Width: 450
VWidth: 0
Flags: W
HStem: 2 18<80.8907 184.646> 5 21G<64.0586 71.0586> 316 54<144.493 179.372> 378 18<261.496 308.059> 649 18<170.746 277.62>
VStem: 58.0586 24<601.339 653.532> 58.0586 14<52.1548 569.6> 329.059 19<506.935 600.982> 394.059 16<205.698 309.876>
LayerCount: 2
Back
Fore
SplineSet
78.05859375 601 m 1x7d80
 89.05859375 624 115.05859375 639 136.05859375 648 c 0
 162.05859375 659 196.05859375 667 229.05859375 667 c 0
 265.05859375 667 300.05859375 657 323.05859375 629 c 0
 341.05859375 607 348.05859375 583 348.05859375 558 c 0
 348.05859375 495 301.05859375 428 260.05859375 392 c 1
 272.05859375 394 283.05859375 396 295.05859375 396 c 2
 308.05859375 395 l 1
 378.05859375 384 410.05859375 326 410.05859375 260 c 0
 410.05859375 238 406.05859375 215 399.05859375 192 c 0
 364.05859375 85 242.05859375 2 132.05859375 2 c 0xbd80
 113.05859375 2 94.05859375 5 76.05859375 10 c 0
 74.05859375 7 72.05859375 5 70.05859375 5 c 0
 58.05859375 5 41.05859375 40 40.05859375 50 c 0
 39.05859375 64 51.05859375 60 55.05859375 52 c 1
 57.05859375 52 l 1
 56.05859375 149 52.05859375 247 52.05859375 345 c 0
 52.05859375 401 53.05859375 458 57.05859375 515 c 0
 58.05859375 527 58.05859375 539 58.05859375 551 c 2
 58.05859375 570 l 2x7b80
 58.05859375 588 58.05859375 606 60.05859375 624 c 0
 61.05859375 634 63.05859375 655 76.05859375 656 c 0
 81.05859375 656 82.05859375 651 82.05859375 644 c 0
 82.05859375 630 76.05859375 608 76.05859375 601 c 1
 78.05859375 601 l 1x7d80
121.05859375 316 m 0
 117.05859375 316 114.05859375 318 114.05859375 322 c 0
 114.05859375 337 175.05859375 365 187.05859375 370 c 0
 244.05859375 393 298.05859375 440 320.05859375 504 c 0
 325.05859375 520 329.05859375 538 329.05859375 556 c 0
 329.05859375 584 320.05859375 611 299.05859375 628 c 0
 280.05859375 643 254.05859375 649 230.05859375 649 c 0
 222.05859375 649 214.05859375 648 206.05859375 647 c 0
 163.05859375 641 110.05859375 627 85.05859375 583 c 0
 74.05859375 564 72.05859375 538 72.05859375 512 c 0
 72.05859375 497 73.05859375 483 73.05859375 470 c 0
 73.05859375 385 71.05859375 300 71.05859375 215 c 0
 71.05859375 173 72.05859375 131 72.05859375 89 c 2
 72.05859375 69 l 2xbb80
 72.05859375 56 73.05859375 41 77.05859375 33 c 0
 83.05859375 23 100.05859375 20 117.05859375 20 c 0
 131.05859375 20 146.05859375 22 154.05859375 23 c 0
 263.05859375 35 394.05859375 121 394.05859375 263 c 0
 394.05859375 319 362.05859375 378 293.05859375 378 c 0
 250.05859375 378 211.05859375 351 172.05859375 334 c 0
 164.05859375 332 135.05859375 316 121.05859375 316 c 0
EndSplineSet
EndChar

StartChar: N
Encoding: 78 78 14
Width: 424
VWidth: 0
Flags: W
HStem: 647 20G<373 378.5>
VStem: 40 17<0.089447 244.474> 71 20<518.01 657.576> 359 18<45.1294 656.575>
LayerCount: 2
Back
Fore
SplineSet
380 55 m 0
 380 35 380 0 369 0 c 0
 360 0 358 29 348 50 c 0
 275 199 191 319 129 473 c 0
 114 510 93 553 87 592 c 1
 85 592 l 1
 84 520 74 446 69 374 c 0
 61 277 56 176 56 72 c 0
 56 68 57 52 57 36 c 0
 57 18 56 0 49 0 c 0
 40 0 40 31 40 48 c 0
 40 49 40 49 40 50 c 0
 40 54 40 58 40 59 c 0
 40 88 40 117 42 146 c 0
 51 269 56 395 63 518 c 0
 65 552 70 586 71 620 c 0
 71 630 65 639 66 648 c 0
 66 657 94 683 94 658 c 0
 94 649 91 637 91 629 c 0
 91 627 91 626 91 625 c 0
 101 584 120 541 136 502 c 0
 179 391 231 310 294 191 c 0
 315 152 346 86 365 44 c 1
 360 68 359 98 359 128 c 0
 359 164 361 202 361 231 c 0
 361 330 359 428 359 527 c 0
 359 545 358 563 358 582 c 0
 358 601 359 619 362 637 c 0
 363 643 369 667 377 667 c 0
 380 667 384 662 384 657 c 0
 384 648 378 635 377 628 c 0
 375 615 375 601 375 587 c 0
 375 574 375 561 375 548 c 0
 375 516 374 483 374 451 c 0
 374 360 377 269 377 177 c 0
 377 141 380 107 380 71 c 0
 380 68 380 62 380 55 c 0
EndSplineSet
EndChar

StartChar: Z
Encoding: 90 90 15
Width: 465
VWidth: 0
Flags: W
HStem: 8 16<115.45 416.855> 634 16<70.1457 141.762> 646 17<121.146 402>
LayerCount: 2
Back
Fore
SplineSet
406 660 m 2xa0
 413 660 425 660 425 649 c 0
 425 636 404 619 397 610 c 0
 368 573 340 536 312 498 c 0
 213 362 148 182 70 34 c 1
 154 28 219 25 296 24 c 0
 329 24 361 26 394 26 c 0
 401 26 424 25 417 12 c 0
 414 6 405 10 400 10 c 0
 365 12 330 8 294 8 c 0
 257 8 220 9 183 9 c 0
 167 9 150 8 134 8 c 0
 116 8 98 14 81 14 c 0
 74 14 67 13 60 10 c 0
 53 7 40 1 40 13 c 0
 40 24 55 42 59 50 c 0
 80 87 101 146 120 184 c 0
 164 272 203 362 256 446 c 0
 300 516 355 577 402 644 c 1
 352 644 301 646 251 646 c 0xa0
 216 646 181 645 146 642 c 0
 126 640 107 634 88 634 c 0
 87 634 85 634 84 634 c 0
 78 634 65 638 70 647 c 0
 73 653 83 650 88 650 c 0xc0
 104 650 119 655 135 657 c 0
 171 662 208 663 246 663 c 0
 280 663 315 662 348 661 c 2
 406 660 l 2xa0
EndSplineSet
Validated: 33
EndChar

StartChar: nine
Encoding: 57 57 16
Width: 395
VWidth: 0
Flags: W
HStem: 325 18<95.5645 183.008> 649 17<167.743 248.609>
VStem: 40 16<385.05 487.193> 306 16<559.1 598.423> 313 16<2.51542 426.656> 323 32<511.197 611.697>
LayerCount: 2
Back
Fore
SplineSet
316 465 m 1xe8
 292 399 216 325 143 325 c 0
 118 325 87 331 68 349 c 0
 46 370 40 395 40 422 c 0
 40 437 42 453 44 469 c 0
 51 524 73 586 112 627 c 0
 137 652 174 666 210 666 c 0
 262 666 314 632 322 586 c 0
 323 580 325 556 312 559 c 0
 304 561 307 571 306 578 c 0
 299 620 250 649 211 649 c 0
 184 649 157 639 134 622 c 0
 108 602 93 570 80 537 c 0
 69 510 56 467 56 429 c 0
 56 391 69 357 109 347 c 0
 119 344 129 343 139 343 c 0
 225 343 298 441 320 518 c 0
 323 528 323 537 323 547 c 2
 323 569 l 2
 323 582 324 595 331 605 c 0
 341 618 355 615 355 597 c 0xf4
 355 590 353 583 352 578 c 0
 348 548 339 522 337 492 c 0
 330 410 329 328 329 246 c 2
 329 95 l 2xe8
 329 74 329 53 331 33 c 0
 331 30 333 23 333 17 c 0
 333 9 331 2 324 2 c 2
 323 2 l 2xe4
 312 3 315 20 315 28 c 0
 315 55 313 83 313 110 c 0
 313 164 311 218 311 272 c 0
 311 296 312 320 312 345 c 0
 313 373 319 405 319 436 c 0
 319 446 318 456 316 465 c 1xe8
EndSplineSet
EndChar

StartChar: quoteright
Encoding: 8217 8217 17
Width: 130
VWidth: 0
Flags: W
HStem: 416 180
VStem: 73.0244 17<495.002 595.699>
LayerCount: 2
Back
Fore
SplineSet
74.0244140625 596 m 0
 89.0244140625 604 90.0244140625 565 90.0244140625 558 c 0
 89.0244140625 520 81.0244140625 483 67.0244140625 448 c 0
 63.0244140625 439 59.0244140625 419 49.0244140625 416 c 0
 36.0244140625 412 40.0244140625 428 43.0244140625 434 c 0
 60.0244140625 470 71.0244140625 510 73.0244140625 550 c 0
 73.0244140625 556 70.0244140625 572 70.0244140625 583 c 0
 70.0244140625 589 71.0244140625 594 74.0244140625 596 c 0
EndSplineSet
EndChar

StartChar: dollar
Encoding: 36 36 18
Width: 406
VWidth: 0
Flags: W
HStem: 520 28<265.333 299.141> 542 10<134 173 192.076 248.572>
VStem: 40 15<415.41 457.458> 175 15<455 535.863 554.986 638.515> 179 16<146.706 351.717 374.176 455> 245 20<441 530 552.071 640.228> 261 16<204 317.833 346.142 393.5> 266 19<81.7599 140 166.098 299> 350 16<213.312 266.755>
LayerCount: 2
Back
Fore
SplineSet
71 193 m 0xad80
 71 196 74 199 78 199 c 0
 87 199 99 185 105 181 c 0
 125 167 152 145 178 145 c 0
 181 145 184 145 187 146 c 0
 183 161 185 180 184 196 c 0
 183 229 181 263 181 296 c 0
 181 305 182 317 182 329 c 0
 182 338 182 346 179 352 c 0
 175 362 154 365 145 367 c 0
 105 377 40 384 40 435 c 0
 40 449 46 463 54 476 c 0
 80 516 126 546 173 552 c 1
 173 576 171 600 170 624 c 0
 170 630 169 647 180 641 c 0
 186 638 186 625 186 619 c 0
 187 598 186 575 191 554 c 1
 249 552 l 1x6d80
 247 560 245 578 245 597 c 0
 245 619 248 641 258 641 c 2
 259 641 l 2
 264 641 265 636 265 630 c 0
 265 623 263 613 263 608 c 0
 263 595 265 581 265 568 c 0
 265 561 265 554 263 548 c 1
 268 547 305 537 305 527 c 0
 305 524 300 520 296 520 c 0
 286 520 272 528 265 530 c 1
 270 487 271 443 273 400 c 2
 273 368 l 2
 273 358 273 349 276 342 c 0
 280 332 297 328 305 322 c 0
 332 303 364 280 366 244 c 2
 366 240 l 2
 366 209 342 181 317 165 c 0
 303 157 281 154 281 132 c 0
 281 121 285 108 285 97 c 0
 285 93 284 89 283 86 c 0
 279 78 270 79 268 88 c 0
 267 95 266 103 266 110 c 0
 266 120 267 130 267 140 c 1
 253 137 240 131 226 129 c 0
 215 127 203 131 203 114 c 0
 203 109 204 103 204 98 c 0
 204 91 202 85 196 85 c 2
 195 85 l 2
 188 86 187 93 187 101 c 2
 187 112 l 2
 187 117 187 122 184 125 c 0
 177 132 160 131 151 134 c 0
 129 142 109 156 91 170 c 0
 87 173 71 185 71 193 c 0xad80
208 542 m 0
 195 542 190 539 190 525 c 0x7080
 190 516 192 505 192 500 c 0
 192 469 194 439 195 408 c 0
 195 402 194 394 194 386 c 0
 194 380 194 374 197 371 c 0
 206 359 245 350 259 346 c 1
 249 536 l 1
 240 537 222 542 208 542 c 0
179 374 m 1x2880
 175 536 l 1x3080
 134 531 93 504 70 470 c 0
 63 459 55 447 55 434 c 0
 55 409 80 403 97 397 c 0
 124 388 152 380 179 374 c 1x2880
195 352 m 1x2a80
 197 282 199 212 201 142 c 1
 217 145 256 144 265 159 c 0
 267 162 267 166 267 170 c 0
 267 179 265 190 265 196 c 0x2c80
 265 228 264 262 261 294 c 2
 261 312 l 2
 261 318 261 323 258 327 c 0
 247 340 212 349 195 352 c 1x2a80
277 318 m 1x2280
 281 166 l 1
 312 174 350 205 350 240 c 2
 350 244 l 2
 347 277 307 309 277 318 c 1x2280
EndSplineSet
Validated: 33
EndChar

StartChar: greater
Encoding: 62 62 19
Width: 319
VWidth: 0
Flags: W
VStem: 41.7441 237
LayerCount: 2
Back
Fore
SplineSet
258.744140625 394 m 1
 237.744140625 400 219.744140625 415 200.744140625 425 c 0
 163.744140625 445 124.744140625 462 88.744140625 485 c 0
 73.744140625 494 57.744140625 501 43.744140625 509 c 0
 39.744140625 511 38.744140625 516 41.744140625 519 c 0
 44.744140625 523 48.744140625 524 52.744140625 524 c 0
 68.744140625 524 89.744140625 505 98.744140625 499 c 0
 141.744140625 471 190.744140625 453 234.744140625 426 c 0
 245.744140625 419 274.744140625 409 278.744140625 396 c 1
 278.744140625 394 l 2
 278.744140625 379 240.744140625 353 232.744140625 344 c 0
 197.744140625 307 162.744140625 270 129.744140625 232 c 0
 121.744140625 222 103.744140625 192 90.744140625 190 c 0
 75.744140625 188 87.744140625 208 90.744140625 212 c 0
 105.744140625 232 122.744140625 250 138.744140625 268 c 0
 153.744140625 285 168.744140625 302 184.744140625 318 c 0
 208.744140625 343 237.744140625 367 258.744140625 394 c 1
EndSplineSet
EndChar

StartChar: h
Encoding: 104 104 20
Width: 355
VWidth: 0
Flags: W
HStem: 346 17<159.23 247.145>
VStem: 40 19<1.28798 186.017> 59 17<327.734 576.639> 299 16<9.58269 256.869>
LayerCount: 2
Back
Fore
SplineSet
208 363 m 4xb0
 295 363 315 261 315 173 c 0
 315 118 316 51 306 3 c 0
 303 -2 301 -5 298 -5 c 0
 296 -5 293 -2 291 5 c 0
 299 50 299 121 299 166 c 0
 299 225 294 286 266 322 c 0
 248 345 226 346 204 346 c 4
 169 346 132 331 108 300 c 0
 65 246 67 188 63 123 c 0
 62 99 59 76 59 52 c 0
 59 46 68 1 47 1 c 0
 40 1 40 23 40 40 c 0xd0
 40 55 41 68 41 72 c 0
 41 93 45 106 45 127 c 0
 45 138 47 156 48 167 c 0
 56 268 54 376 59 480 c 1
 59 554 l 2
 59 561 60 576 69 577 c 2
 70 577 l 2
 76 577 77 569 77 560 c 0
 77 551 76 542 76 538 c 0
 75 495 73 451 73 408 c 0
 73 377 67 342 67 309 c 0
 67 296 68 282 71 270 c 1
 76 291 94 311 109 326 c 0
 136 352 173 363 208 363 c 4xb0
EndSplineSet
EndChar

StartChar: u
Encoding: 117 117 21
Width: 372
VWidth: 0
Flags: W
HStem: 341 20G<307.5 319.5>
VStem: 40 17<177.754 349.678> 316 16<156.818 343.324>
LayerCount: 2
Back
Fore
SplineSet
49 350 m 0
 55 352 60 348 60 342 c 0
 59 320 57 297 57 274 c 0
 57 219 61 160 79 108 c 0
 88 80 109 35 140 28 c 0
 198 14 268 67 295 120 c 0
 314 157 316 202 316 248 c 0
 316 277 315 313 310 336 c 0
 309 342 301 361 314 361 c 0
 325 361 327 338 328 330 c 0
 331 312 332 288 332 264 c 0
 332 244 331 224 331 208 c 0
 327 113 282 25 185 10 c 0
 179 9 172 8 166 8 c 0
 52 8 51 158 42 238 c 0
 41 250 40 262 40 274 c 0
 40 290 41 306 41 322 c 0
 41 330 39 347 49 350 c 0
EndSplineSet
Validated: 33
EndChar

StartChar: R
Encoding: 82 82 22
Width: 451
VWidth: 0
Flags: W
HStem: 333 18<79.3385 117.801> 654 16<92.4982 228.995>
VStem: 42.7139 16<31.5606 329.367> 55.7139 16<318.633 601.758> 354.714 16<478.334 565.202>
LayerCount: 2
Back
Fore
SplineSet
354.713867188 523 m 0xc8
 354.713867188 622 249.713867188 654 161.713867188 654 c 0
 141.713867188 654 122.713867188 652 106.713867188 649 c 0
 92.7138671875 646 77.7138671875 644 64.7138671875 638 c 0
 59.7138671875 635 56.7138671875 629 50.7138671875 627 c 0
 40.7138671875 624 37.7138671875 636 41.7138671875 642 c 0
 48.7138671875 654 67.7138671875 658 80.7138671875 661 c 0
 105.713867188 666 131.713867188 670 156.713867188 670 c 2
 179.713867188 669 l 2
 236.713867188 665 300.713867188 650 341.713867188 607 c 0
 362.713867188 585 370.713867188 556 370.713867188 527 c 0
 370.713867188 474 342.713867188 419 304.713867188 389 c 0
 273.713867188 364 233.713867188 349 194.713867188 341 c 0
 176.713867188 337 153.713867188 337 136.713867188 330 c 1
 161.713867188 324 188.713867188 303 210.713867188 289 c 0
 281.713867188 244 336.713867188 192 372.713867188 114 c 0
 383.713867188 89 394.713867188 56 404.713867188 31 c 0
 407.713867188 25 415.713867188 10 406.713867188 5 c 0
 397.713867188 0 392.713867188 15 390.713867188 21 c 0
 381.713867188 44 372.713867188 74 362.713867188 96 c 0
 321.713867188 189 254.713867188 244 168.713867188 295 c 0
 146.713867188 308 122.713867188 323 98.7138671875 333 c 0
 91.7138671875 336 76.7138671875 337 77.7138671875 348 c 0
 78.7138671875 358 94.7138671875 353 100.713867188 351 c 0
 109.713867188 349 118.713867188 348 127.713867188 348 c 0
 148.713867188 348 170.713867188 353 190.713867188 357 c 0
 272.713867188 375 354.713867188 432 354.713867188 523 c 0xc8
61.7138671875 602 m 0
 73.7138671875 609 71.7138671875 586 71.7138671875 580 c 0xd8
 70.7138671875 552 69.7138671875 524 69.7138671875 496 c 0
 69.7138671875 381 60.7138671875 267 60.7138671875 152 c 0
 60.7138671875 119 58.7138671875 67 58.7138671875 34 c 0
 58.7138671875 27 62.7138671875 5 52.7138671875 2 c 0
 38.7138671875 -2 42.7138671875 23 42.7138671875 30 c 0xe8
 42.7138671875 63 44.7138671875 115 44.7138671875 148 c 0
 44.7138671875 262 52.7138671875 376 53.7138671875 490 c 0
 53.7138671875 518 54.7138671875 545 55.7138671875 573 c 0xd8
 55.7138671875 581 53.7138671875 597 61.7138671875 602 c 0
EndSplineSet
EndChar

StartChar: P
Encoding: 80 80 23
Width: 387
VWidth: 0
Flags: W
HStem: 5 21G<56.5 63.5> 318 16<41.1414 60 76 191.955> 658 16<92.4464 176.76>
VStem: 52 16<5.00654 251.153> 60 16<135.847 318 334 627.109> 68 16<571.891 645.812> 330 17<438.116 538.785>
LayerCount: 2
Back
Fore
SplineSet
60 334 m 1xea
 67 413 63 492 66 571 c 0
 67 590 68 609 68 628 c 0xe6
 68 632 67 638 67 643 c 0
 67 647 68 652 70 655 c 0
 80 670 106 674 127 674 c 0
 133 674 139 674 144 673 c 0
 210 664 271 631 316 582 c 0
 337 559 347 526 347 492 c 0
 347 439 323 384 282 358 c 0
 222 321 144 318 76 318 c 1xea
 76 247 70 140 70 69 c 0
 70 52 69 34 68 17 c 0xf2
 68 12 67 5 60 5 c 0xea
 53 5 52 14 52 19 c 0xf2
 52 36 54 52 54 69 c 0
 54 140 60 247 60 318 c 1
 47 319 40 325 40 329 c 0
 40 332 44 335 51 335 c 0
 53 335 57 335 60 334 c 1xea
76 334 m 1xea
 82 334 88 334 94 334 c 0
 154 334 223 339 274 372 c 0
 310 396 330 443 330 490 c 0
 330 519 322 547 306 568 c 0
 271 612 206 649 150 656 c 0
 142 657 132 658 122 658 c 0
 109 658 96 656 88 646 c 0
 85 642 84 637 84 632 c 0
 84 630 84 627 84 625 c 0
 84 623 84 622 84 620 c 0xe6
 83 599 82 579 82 558 c 0
 82 483 79 408 76 334 c 1xea
EndSplineSet
Validated: 1
EndChar

StartChar: zero
Encoding: 48 48 24
Width: 410
VWidth: 0
Flags: W
HStem: 18 16<154.675 227.278> 654 15<176.443 201.273>
VStem: 40 14<197.449 358.59> 354 16<222.728 423.323>
LayerCount: 2
Back
Fore
SplineSet
183 654 m 0
 173 659 174 669 187 669 c 0
 201 669 224 658 234 653 c 0
 315 616 347 525 363 428 c 0
 367 403 368 379 369 353 c 0
 369 343 370 333 370 323 c 0
 370 202 344 49 208 20 c 0
 200 18 193 18 186 18 c 0
 120 18 81 86 59 142 c 0
 43 184 40 229 40 279 c 0
 40 358 58 443 86 516 c 0
 100 553 131 614 172 628 c 0
 178 630 201 629 195 618 c 0
 191 611 173 613 166 608 c 0
 149 596 134 574 123 556 c 0
 103 524 91 487 81 451 c 0
 65 395 54 335 54 276 c 0
 54 244 57 213 64 182 c 0
 77 119 118 34 189 34 c 0
 198 34 207 35 217 38 c 0
 278 56 314 109 334 166 c 0
 351 215 354 264 354 322 c 0
 354 392 343 457 323 525 c 0
 312 562 279 609 246 629 c 0
 226 641 203 644 183 654 c 0
EndSplineSet
EndChar

StartChar: question
Encoding: 63 63 25
Width: 311
VWidth: 0
Flags: W
HStem: 655 17<184.267 246.801>
VStem: 40.4375 17<508.1 541.125> 145.438 17<304.477 346.381> 156.438 24<67.0534 105.371> 257.438 14<582.112 642.51>
LayerCount: 2
Back
Fore
SplineSet
257.4375 620 m 0xe8
 257.4375 642 243.4375 655 222.4375 655 c 0
 211.4375 655 200.4375 652 190.4375 649 c 0
 141.4375 633 106.4375 598 75.4375 558 c 0
 62.4375 542 63.4375 529 57.4375 512 c 0
 56.4375 509 52.4375 507 48.4375 508 c 0
 39.4375 510 39.4375 521 40.4375 528 c 0
 43.4375 546 56.4375 562 67.4375 576 c 0
 103.4375 625 154.4375 662 215.4375 671 c 0
 219.4375 672 222.4375 672 225.4375 672 c 0
 259.4375 672 271.4375 646 271.4375 616 c 0
 271.4375 609 270.4375 603 269.4375 596 c 0
 258.4375 523 219.4375 452 188.4375 386 c 0
 178.4375 365 168.4375 344 162.4375 322 c 0
 160.4375 316 159.4375 303 150.4375 304 c 0
 146.4375 304 145.4375 308 145.4375 314 c 0
 145.4375 333 165.4375 378 168.4375 384 c 0
 196.4375 445 228.4375 507 247.4375 572 c 0
 251.4375 585 257.4375 603 257.4375 620 c 0xe8
170.4375 106 m 2
 171.4375 106 l 2
 177.4375 106 180.4375 97 180.4375 88 c 0
 180.4375 78 177.4375 68 170.4375 67 c 2
 168.4375 67 l 2
 160.4375 67 156.4375 75 156.4375 83 c 0xd8
 156.4375 93 161.4375 104 170.4375 106 c 2
EndSplineSet
EndChar

StartChar: quotedbl
Encoding: 34 34 26
Width: 207
VWidth: 0
Flags: W
HStem: 511 153
VStem: 41 18<511.167 649.718> 151 16<525.754 641.009>
LayerCount: 2
Back
Fore
SplineSet
59 525 m 0
 59 517 58 511 51 511 c 0
 41 511 41 537 41 542 c 2
 41 633 l 2
 41 637 40 644 40 650 c 0
 40 656 41 662 45 664 c 0
 59 673 55 646 55 640 c 0
 55 609 57 580 57 549 c 0
 57 544 59 534 59 525 c 0
167 575 m 0
 167 561 166 521 152 521 c 0
 140 521 147 539 148 545 c 0
 150 555 151 565 151 574 c 0
 151 593 148 610 144 628 c 0
 143 635 141 648 152 648 c 0
 161 648 161 629 162 622 c 0
 165 606 167 591 167 575 c 0
EndSplineSet
EndChar

StartChar: percent
Encoding: 37 37 27
Width: 323
VWidth: 0
Flags: W
VStem: 59.5039 36<411.413 480.575> 59.5039 15<434.117 451.837> 235.504 17<220.03 235.013>
LayerCount: 2
Back
Fore
SplineSet
274.50390625 556 m 0x20
 283.50390625 559 284.50390625 549 281.50390625 543 c 0
 268.50390625 519 256.50390625 494 244.50390625 470 c 0
 201.50390625 384 154.50390625 300 106.50390625 216 c 0
 92.50390625 192 80.50390625 168 66.50390625 144 c 0
 62.50390625 137 55.50390625 122 46.50390625 122 c 0
 33.50390625 122 43.50390625 139 46.50390625 144 c 0
 61.50390625 168 74.50390625 193 88.50390625 218 c 0
 147.50390625 320 204.50390625 424 256.50390625 532 c 0
 260.50390625 540 265.50390625 553 274.50390625 556 c 0x20
59.50390625 440 m 0xa0
 59.50390625 457 65.50390625 481 80.50390625 481 c 0
 89.50390625 481 95.50390625 465 95.50390625 448 c 0
 95.50390625 432 89.50390625 415 76.50390625 411 c 0
 75.50390625 411 74.50390625 410 73.50390625 410 c 0
 63.50390625 410 59.50390625 424 59.50390625 440 c 0xa0
76.50390625 452 m 1
 74.50390625 434 l 1x60
 76.50390625 434 l 1
 80.50390625 452 l 1
 76.50390625 452 l 1
264.50390625 252 m 1
 275.50390625 250 279.50390625 242 279.50390625 233 c 0
 279.50390625 220 270.50390625 205 256.50390625 204 c 2
 254.50390625 204 l 2
 241.50390625 204 235.50390625 214 235.50390625 226 c 0
 235.50390625 243 245.50390625 264 258.50390625 268 c 0
 271.50390625 272 270.50390625 258 264.50390625 252 c 1
252.50390625 220 m 1
 264.50390625 234 l 1
 262.50390625 236 l 1
 255.50390625 232 252.50390625 228 252.50390625 220 c 1
EndSplineSet
EndChar

StartChar: bracketleft
Encoding: 91 91 28
Width: 279
VWidth: 0
Flags: W
HStem: 8 17<73.2378 178.185> 17 17<94.1125 236.165> 648 17<120.787 186.968>
VStem: 40 16<333.312 647.92> 49 16<33.6402 352.688>
LayerCount: 2
Back
Fore
SplineSet
63 678 m 0x70
 89 688 130 668 157 665 c 0
 158 665 159 665 160 665 c 0
 163 665 167 665 171 665 c 0
 179 665 187 664 187 657 c 0
 187 650 176 648 167 648 c 0
 138 648 115 658 88 662 c 0
 76 664 65 663 62 649 c 0
 56 626 55 601 55 575 c 0
 55 554 56 534 56 515 c 0x70
 56 413 65 311 65 209 c 0
 65 191 65 173 65 155 c 0
 65 128 65 100 69 73 c 0
 72 57 64 25 87 25 c 0xa8
 94 25 102 27 107 27 c 0
 140 29 175 30 208 34 c 0
 213 35 252 35 234 22 c 0
 228 18 216 17 206 17 c 0
 200 17 195 17 191 17 c 0x68
 161 16 130 13 100 10 c 0
 94 10 87 8 80 8 c 0xa8
 72 8 64 10 60 17 c 0
 53 30 54 51 53 65 c 0
 50 102 49 138 49 175 c 0x68
 49 284 40 391 40 500 c 0
 40 544 42 588 44 632 c 0
 45 648 45 671 63 678 c 0x70
EndSplineSet
Validated: 33
EndChar

StartChar: o
Encoding: 111 111 29
Width: 398
VWidth: 0
Flags: W
HStem: 1 19<143.021 226.245> 352 19<108.332 116.05>
VStem: 40.0498 18<98.8513 218.768> 339.05 19<138.039 218.366>
LayerCount: 2
Back
Fore
SplineSet
116.049804688 352 m 1
 109.049804688 352 83.0498046875 354 95.0498046875 367 c 0
 98.0498046875 370 103.049804688 371 108.049804688 371 c 0
 114.049804688 371 121.049804688 370 126.049804688 370 c 2
 128.049804688 370 l 2
 137.049804688 371 153.049804688 381 163.049804688 381 c 0
 169.049804688 381 172.049804688 378 172.049804688 369 c 0
 172.049804688 367 172.049804688 365 172.049804688 363 c 2
 179.049804688 363 l 2
 218.049804688 363 264.049804688 319 289.049804688 295 c 0
 314.049804688 273 341.049804688 244 353.049804688 213 c 0
 357.049804688 203 358.049804688 192 358.049804688 182 c 0
 358.049804688 147 340.049804688 113 319.049804688 87 c 0
 291.049804688 52 247.049804688 10 200.049804688 2 c 0
 195.049804688 1 190.049804688 1 185.049804688 1 c 0
 141.049804688 1 89.0498046875 36 64.0498046875 67 c 0
 50.0498046875 85 46.0498046875 106 42.0498046875 128 c 0
 41.0498046875 135 40.0498046875 143 40.0498046875 151 c 0
 40.0498046875 172 39.0498046875 199 46.0498046875 219 c 0
 60.0498046875 265 88.0498046875 322 116.049804688 352 c 1
142.049804688 352 m 0
 124.049804688 343 99.0498046875 299 90.0498046875 282 c 0
 69.0498046875 242 58.0498046875 192 58.0498046875 147 c 0
 58.0498046875 129 61.0498046875 111 69.0498046875 94 c 0
 85.0498046875 56 139.049804688 20 186.049804688 20 c 0
 200.049804688 20 213.049804688 22 224.049804688 28 c 0
 274.049804688 53 339.049804688 118 339.049804688 179 c 0
 339.049804688 188 338.049804688 196 335.049804688 205 c 0
 317.049804688 260 257.049804688 319 203.049804688 339 c 0
 191.049804688 342 167.049804688 354 151.049804688 354 c 0
 148.049804688 354 144.049804688 353 142.049804688 352 c 0
EndSplineSet
EndChar

StartChar: k
Encoding: 107 107 30
Width: 344
VWidth: 0
Flags: W
VStem: 47 15<354.766 582.942> 52 16<4.29793 298 352 527.234>
LayerCount: 2
Back
Fore
SplineSet
229 445 m 0x80
 233 445 235 443 235 439 c 0
 235 427 206 413 200 409 c 0
 158 383 110 354 64 334 c 1
 71 309 98 286 114 266 c 0
 170 195 233 107 288 35 c 0
 293 29 303 21 304 13 c 0
 305 1 292 7 287 11 c 0
 271 26 258 44 244 61 c 4
 202 113 157 186 115 238 c 0
 100 257 79 276 68 298 c 1
 66 298 l 1
 66 261 68 223 68 186 c 0x40
 68 148 69 75 69 37 c 0
 69 34 70 28 70 21 c 0
 70 12 69 4 62 4 c 0x80
 52 4 53 21 53 27 c 0
 52 52 52 111 52 136 c 0
 52 158 52 180 52 202 c 0x40
 52 235 52 269 50 302 c 0
 49 312 40 319 40 328 c 0
 40 336 47 343 48 352 c 0
 48 360 49 369 49 377 c 0
 49 402 47 428 47 453 c 0
 47 485 46 518 46 550 c 0
 46 554 45 560 45 566 c 0
 45 574 47 583 54 583 c 0
 61 583 63 568 63 554 c 0
 63 544 62 533 62 530 c 0
 62 471 64 411 64 352 c 1
 105 379 150 398 192 424 c 0
 198 427 218 445 229 445 c 0x80
EndSplineSet
EndChar

StartChar: w
Encoding: 119 119 31
Width: 510
VWidth: 0
Flags: W
HStem: 7 16<135.381 186.798 344.923 384.4>
VStem: 60 17<152.543 357.57> 69 16<311.62 366.322> 271 24<150.81 222.241> 453 17<158.284 288.778>
LayerCount: 2
Back
Fore
SplineSet
277 168 m 1xd8
 276 143 266 117 256 94 c 0
 239 54 202 7 159 7 c 0
 146 7 133 11 119 21 c 0
 65 61 65 173 61 243 c 0
 60 254 60 266 60 278 c 0xd8
 60 292 60 306 62 320 c 0
 63 329 63 356 69 363 c 0
 75 369 85 367 85 358 c 0xb8
 85 349 80 329 79 323 c 0
 77 313 77 304 77 294 c 2
 77 274 l 2
 77 208 82 139 103 76 c 0
 112 51 132 23 160 23 c 0
 164 23 169 24 173 25 c 0
 227 40 250 117 261 165 c 0
 264 180 268 195 271 210 c 0
 272 215 274 224 281 223 c 0
 295 221 294 185 295 174 c 0
 298 139 312 103 325 70 c 0
 334 48 346 19 362 19 c 2
 364 19 l 2
 393 22 419 85 430 108 c 0
 447 143 453 192 453 236 c 0
 453 287 432 318 416 354 c 0
 413 361 416 373 425 368 c 0
 442 359 456 310 462 292 c 0
 468 274 470 254 470 233 c 0
 470 176 455 116 431 74 c 0
 417 50 385 2 359 2 c 0
 337 2 317 48 306 68 c 0
 287 100 290 135 277 168 c 1xd8
EndSplineSet
EndChar

StartChar: D
Encoding: 68 68 32
Width: 400
VWidth: 0
Flags: W
HStem: 646 17<63.7347 134.346>
VStem: 46.4619 13<448.599 638> 58.4619 16<29.2813 369.571> 344.462 16<259.77 407.763>
LayerCount: 2
Back
Fore
SplineSet
55.4619140625 29 m 1xd0
 54.4619140625 35 54.4619140625 41 54.4619140625 48 c 0
 54.4619140625 73 58.4619140625 99 58.4619140625 125 c 0
 58.4619140625 131 58.4619140625 137 58.4619140625 143 c 0xb0
 58.4619140625 191 55.4619140625 239 55.4619140625 287 c 0
 54.4619140625 372 49.4619140625 457 46.4619140625 542 c 0
 45.4619140625 565 44.4619140625 588 42.4619140625 610 c 0
 41.4619140625 619 37.4619140625 629 42.4619140625 637 c 0
 53.4619140625 657 74.4619140625 663 95.4619140625 663 c 0
 104.461914062 663 113.461914062 662 122.461914062 660 c 0
 182.461914062 645 244.461914062 606 284.461914062 558 c 0
 337.461914062 495 360.461914062 417 360.461914062 338 c 0
 360.461914062 283 349.461914062 228 329.461914062 176 c 0
 311.461914062 129 289.461914062 82 248.461914062 51 c 0
 193.461914062 9 133.461914062 14 69.4619140625 10 c 1
 77.4619140625 -18 52.4619140625 -19 55.4619140625 10 c 1
 43.4619140625 15 41.4619140625 26 55.4619140625 29 c 1xd0
63.4619140625 638 m 1
 59.4619140625 613 l 1xd0
 65.4619140625 473 69.4619140625 332 74.4619140625 192 c 1
 71.4619140625 27 l 1
 129.461914062 27 186.461914062 27 236.461914062 62 c 0
 275.461914062 90 295.461914062 134 312.461914062 178 c 0
 332.461914062 230 344.461914062 282 344.461914062 335 c 0
 344.461914062 393 330.461914062 450 300.461914062 505 c 0
 267.461914062 565 210.461914062 609 148.461914062 633 c 0
 130.461914062 639 112.461914062 646 94.4619140625 646 c 0
 84.4619140625 646 74.4619140625 644 63.4619140625 638 c 1
EndSplineSet
EndChar

StartChar: Q
Encoding: 81 81 33
Width: 569
VWidth: 0
Flags: W
HStem: 7 16<234.915 342.522> 50 27<398.294 426.965> 651 19<234.827 341.33>
VStem: 515 14<266.541 400.073>
LayerCount: 2
Back
Fore
SplineSet
208 636 m 1
 184 627 164 613 142 600 c 0
 137 597 124 591 124 602 c 0
 124 616 160 631 170 637 c 0
 202 656 246 670 288 670 c 0
 312 670 336 665 356 654 c 0
 471 592 529 462 529 332 c 0
 529 231 494 130 424 60 c 1
 441 48 457 35 474 24 c 0
 479 21 490 16 488 8 c 0
 485 -3 471 6 466 9 c 0
 448 20 426 33 414 50 c 1
 412 50 l 1
 384 19 340 7 294 7 c 0
 241 7 185 24 150 49 c 0
 124 68 104 94 86 120 c 0
 53 167 40 220 40 274 c 0
 40 361 75 452 118 524 c 0
 140 562 167 614 208 634 c 1
 208 636 l 1
234 648 m 1
 234 646 l 1
 240 646 265 639 250 631 c 0
 235 623 219 625 204 613 c 0
 167 583 139 534 119 492 c 0
 70 392 39 298 70 188 c 0
 97 93 193 23 289 23 c 0
 328 23 366 34 400 60 c 1
 386 80 366 100 348 116 c 0
 344 120 328 129 334 136 c 0
 341 145 355 129 360 124 c 0
 372 113 395 77 414 77 c 0
 418 77 421 79 424 82 c 0
 441 100 452 123 464 144 c 0
 496 201 515 269 515 336 c 0
 515 403 496 450 474 498 c 0
 448 557 406 617 344 642 c 0
 327 649 310 651 293 651 c 0
 274 651 254 649 234 648 c 1
EndSplineSet
Validated: 33
EndChar

StartChar: one
Encoding: 49 49 34
Width: 232
VWidth: 0
Flags: W
VStem: 161 17<22.052 237.111> 169 17<165.359 628.405>
LayerCount: 2
Back
Fore
SplineSet
180 650 m 0x40
 188 650 192 642 192 633 c 0
 192 625 190 616 189 610 c 0
 187 580 185 550 185 520 c 0
 185 446 186 370 186 294 c 0x40
 186 213 185 132 178 56 c 1
 178 39 l 2
 178 31 177 23 171 22 c 2
 170 22 l 2
 163 22 161 31 161 39 c 0x80
 161 45 162 50 162 53 c 0
 163 89 167 125 167 161 c 0
 167 254 169 347 169 440 c 0
 169 468 168 496 168 525 c 0
 168 560 169 596 175 630 c 1
 139 613 108 584 77 560 c 0
 72 556 58 543 48 543 c 0
 45 543 40 546 40 550 c 0
 40 559 64 570 69 575 c 0
 97 597 125 620 155 639 c 0
 161 643 172 650 180 650 c 0x40
EndSplineSet
Validated: 1
EndChar

StartChar: colon
Encoding: 58 58 35
Width: 179
VWidth: 0
Flags: W
HStem: 321 17<95 99.8473>
VStem: 62 31<303.003 319> 69 35<55.2571 96.8565> 100 17<298.645 320.48>
LayerCount: 2
Back
Fore
SplineSet
62 293 m 4xd0
 62 310 74 338 94 338 c 4
 107 338 117 327 117 314 c 6
 117 313 l 6
 116 295 97 275 76 275 c 4
 66 275 62 283 62 293 c 4xd0
95 321 m 5
 93 319 l 5
 96 307 91 303 79 303 c 5
 75 293 l 5
 77 291 l 5
 89 294 100 303 100 315 c 4
 100 317 100 319 99 321 c 6
 95 321 l 5
93 97 m 5
 101 94 104 87 104 79 c 4
 104 68 97 56 85 55 c 6
 84 55 l 6
 73 55 69 65 69 77 c 4xa0
 69 91 76 108 85 112 c 4
 97 117 96 103 93 97 c 5
EndSplineSet
EndChar

StartChar: quotedblleft
Encoding: 8220 8220 36
Width: 205
VWidth: 0
Flags: W
HStem: 484 198
VStem: 121 37<488.219 521.191> 121 17<511.155 575.071>
LayerCount: 2
Back
Fore
SplineSet
158 490 m 0xc0
 158 486 152 484 149 484 c 0
 135 484 125 510 123 520 c 0
 122 525 121 531 121 537 c 0
 121 562 131 590 138 612 c 0
 141 621 144 637 153 642 c 0
 159 645 166 641 165 634 c 0
 159 599 138 570 138 533 c 0
 138 531 138 528 138 526 c 0xa0
 139 517 158 499 158 490 c 0xc0
56 567 m 0
 56 559 64 530 51 530 c 0
 40 530 40 555 40 563 c 0
 42 593 50 623 56 652 c 0
 58 661 58 678 67 682 c 0
 83 690 74 661 73 656 c 0
 67 627 58 597 56 567 c 0
EndSplineSet
Validated: 33
EndChar

StartChar: ampersand
Encoding: 38 38 37
Width: 499
VWidth: 0
Flags: W
HStem: 124 16<79.3435 189.019> 687 15<190.168 256.39>
VStem: 40 15<158.172 203.978> 116 14<517.637 615.937> 322 15<528.519 612.256>
LayerCount: 2
Back
Fore
SplineSet
200 374 m 1
 152 422 116 497 116 568 c 0
 116 585 118 602 122 618 c 0
 136 669 182 702 228 702 c 0
 253 702 279 692 300 670 c 0
 326 642 337 609 337 575 c 0
 337 530 318 484 289 448 c 0
 275 430 259 413 244 396 c 0
 238 390 227 380 226 372 c 2
 226 371 l 2
 226 361 241 348 247 340 c 0
 270 310 293 279 320 252 c 1
 327 274 345 300 359 318 c 0
 363 323 380 335 380 320 c 0
 380 313 372 307 368 302 c 0
 359 289 351 274 343 260 c 0
 340 255 331 245 334 239 c 0
 338 229 354 220 362 213 c 0
 385 194 408 176 430 156 c 0
 439 148 457 137 459 124 c 2
 459 122 l 2
 459 118 457 116 455 116 c 0
 447 116 427 136 424 138 c 0
 390 168 351 195 320 228 c 1
 289 167 216 125 148 124 c 0
 145 124 142 124 139 124 c 0
 100 124 40 131 40 177 c 2
 40 184 l 2
 42 206 55 226 66 242 c 0
 83 266 105 285 126 306 c 0
 147 327 173 359 200 372 c 1
 200 374 l 1
214 386 m 1
 256 436 309 478 321 556 c 0
 322 561 322 567 322 572 c 0
 322 630 278 687 224 687 c 0
 209 687 192 683 176 672 c 0
 143 651 130 607 130 568 c 0
 130 526 143 493 160 462 c 0
 173 439 189 398 214 386 c 1
55 177 m 0
 55 143 106 140 132 140 c 0
 207 140 270 175 310 240 c 1
 273 271 237 319 212 360 c 1
 193 352 177 332 162 318 c 0
 131 289 96 261 73 224 c 0
 66 212 55 193 55 177 c 0
EndSplineSet
Validated: 1
EndChar

StartChar: bracketright
Encoding: 93 93 38
Width: 243
VWidth: 0
Flags: W
HStem: 1 16<80.1639 167.08> 7 20<57.0085 155.907>
VStem: 179.08 14<87.6641 370> 185.08 18<399.5 636.625>
LayerCount: 2
Back
Fore
SplineSet
185.080078125 635 m 1x90
 147.080078125 643 109.080078125 639 71.080078125 646 c 0
 63.080078125 647 34.080078125 651 41.080078125 665 c 0
 43.080078125 669 48.080078125 670 52.080078125 669 c 0
 68.080078125 664 84.080078125 660 101.080078125 659 c 0
 123.080078125 658 146.080078125 657 168.080078125 655 c 0
 177.080078125 654 189.080078125 653 195.080078125 646 c 0
 202.080078125 639 203.080078125 625 203.080078125 612 c 0x90
 203.080078125 601 202.080078125 590 202.080078125 582 c 0
 202.080078125 460 195.080078125 339 193.080078125 217 c 0xa0
 192.080078125 167 190.080078125 119 185.080078125 69 c 0
 185.080078125 65 184.080078125 61 184.080078125 56 c 0
 184.080078125 50 185.080078125 43 185.080078125 36 c 0
 185.080078125 27 184.080078125 18 182.080078125 11 c 0
 179.080078125 1 166.080078125 1 157.080078125 1 c 0x90
 132.080078125 1 105.080078125 1 81.080078125 7 c 0
 74.080078125 9 56.080078125 12 55.080078125 21 c 0
 54.080078125 31 68.080078125 29 73.080078125 27 c 0x50
 103.080078125 17 136.080078125 17 167.080078125 17 c 1
 175.080078125 129 l 1
 179.080078125 277 l 1xa0
 186.080078125 494 l 1
 185.080078125 635 l 1x90
EndSplineSet
EndChar

StartChar: d
Encoding: 100 100 39
Width: 382
VWidth: 0
Flags: W
HStem: 9 16<100.352 157.82> 350 14<169.65 235.793>
VStem: 40 18<80.0266 211.927> 271 22<337.219 553.726> 281 23<172.301 238.743> 316 20<18.5697 80.1691 318.92 565.092>
LayerCount: 2
Back
Fore
SplineSet
277 336 m 1xec
 273 362 271 389 271 417 c 0xf4
 271 459 275 500 279 539 c 0
 280 550 289 591 305 591 c 0
 309 591 314 588 319 582 c 0
 338 559 333 515 335 488 c 0
 336 473 336 458 336 443 c 0
 336 401 333 359 326 318 c 0
 322 293 321 266 316 241 c 0
 314 231 304 226 304 216 c 0
 307 164 321 108 331 58 c 0
 332 52 342 30 342 18 c 0
 342 13 340 10 335 10 c 0
 319 10 316 40 314 49 c 0
 304 92 306 142 288 182 c 1
 282 149 258 115 238 87 c 0
 225 68 209 50 191 36 c 0
 173 22 155 9 127 9 c 0
 83 9 54 50 47 87 c 0
 43 109 40 131 40 152 c 0
 40 210 58 266 100 313 c 0
 129 344 167 364 205 364 c 0
 230 364 255 356 277 336 c 1xec
304 569 m 1xec
 294 537 292 501 292 466 c 0
 292 438 293 411 293 386 c 2
 293 357 l 2xf4
 293 337 294 316 302 299 c 1
 304 299 l 1
 312 352 316 406 316 460 c 2
 316 492 l 2
 315 515 318 549 304 569 c 1xec
205 350 m 2
 165 349 136 328 113 301 c 0
 72 253 58 199 58 140 c 0
 58 136 58 132 58 128 c 0
 60 91 74 26 127 25 c 2
 129 25 l 2
 159 25 188 52 205 72 c 0
 247 122 281 181 281 244 c 2
 281 257 l 2xec
 280 272 281 292 277 306 c 0
 267 330 234 350 207 350 c 2
 205 350 l 2
EndSplineSet
EndChar

StartChar: l
Encoding: 108 108 40
Width: 225
VWidth: 0
Flags: W
HStem: 6 16<154.964 184.923> 634 20G<80.5 87>
VStem: 60 18<248.745 558.298> 75 16<543.379 653.916>
LayerCount: 2
Back
Fore
SplineSet
75 639 m 0xd0
 75 647 77 654 84 654 c 0
 90 654 91 641 91 634 c 0
 91 633 91 632 91 631 c 0xd0
 90 604 83 542 81 515 c 0
 79 485 78 453 78 419 c 0
 78 318 88 205 107 118 c 0
 113 89 125 52 150 33 c 0
 159 26 168 26 178 22 c 0
 182 21 185 17 185 13 c 0
 185 8 179 6 174 6 c 0
 164 6 150 13 144 17 c 0
 113 35 90 109 82 142 c 0
 65 212 60 288 60 364 c 0xe0
 60 412 62 460 64 506 c 0
 65 535 75 599 75 628 c 0
 75 631 75 635 75 639 c 0xd0
EndSplineSet
EndChar

StartChar: v
Encoding: 118 118 41
Width: 360
VWidth: 0
Flags: W
VStem: 41.5078 278
LayerCount: 2
Back
Fore
SplineSet
173.5078125 33 m 1
 202.5078125 98 217.5078125 186 248.5078125 248 c 0
 262.5078125 276 277.5078125 302 295.5078125 328 c 0
 298.5078125 333 313.5078125 357 319.5078125 342 c 0
 321.5078125 336 316.5078125 329 313.5078125 324 c 0
 303.5078125 309 292.5078125 295 284.5078125 280 c 0
 241.5078125 202 221.5078125 90 187.5078125 21 c 0
 184.5078125 15 182.5078125 3 173.5078125 4 c 0
 164.5078125 5 162.5078125 17 159.5078125 23 c 0
 151.5078125 42 141.5078125 61 134.5078125 81 c 0
 104.5078125 160 79.5078125 259 44.5078125 334 c 0
 42.5078125 339 37.5078125 346 41.5078125 351 c 0
 49.5078125 363 58.5078125 342 61.5078125 336 c 0
 74.5078125 308 85.5078125 279 97.5078125 250 c 0
 125.5078125 184 143.5078125 97 173.5078125 33 c 1
EndSplineSet
EndChar

StartChar: L
Encoding: 76 76 42
Width: 395
VWidth: 0
Flags: W
HStem: 11 19<97.3289 354.948> 644 20G<45.5 52.5>
VStem: 40 17<495.664 663.968> 47 16<389.897 629.336> 77 20<27 208.495>
LayerCount: 2
Back
Fore
SplineSet
40 649 m 0xe8
 40 657 42 664 49 664 c 0
 56 664 57 653 57 644 c 0
 57 639 57 635 57 633 c 0xe8
 58 598 61 533 63 498 c 0
 70 349 97 176 97 27 c 1
 104 29 112 30 120 30 c 0
 134 30 150 28 163 27 c 0
 188 26 212 25 237 25 c 0
 259 25 281 26 302 28 c 0
 307 28 320 30 331 30 c 0
 344 30 355 28 355 21 c 0
 355 12 337 11 321 11 c 0
 316 11 312 11 308 11 c 0
 306 11 303 11 302 11 c 0
 279 9 256 9 233 9 c 2
 137 13 l 2
 134 13 132 13 130 13 c 0
 115 13 102 9 87 8 c 0
 80 8 77 14 77 22 c 0
 77 34 82 49 82 57 c 0
 82 201 51 357 47 494 c 0xd8
 46 529 42 596 41 631 c 0
 41 635 40 642 40 649 c 0xe8
EndSplineSet
Validated: 1
EndChar

StartChar: S
Encoding: 83 83 43
Width: 388
VWidth: 0
Flags: W
HStem: -1 19<159.846 250.429> 649 18<165.316 263.533>
VStem: 88 17<508.87 593.01> 332 16<100.006 181.921>
LayerCount: 2
Back
Fore
SplineSet
142 651 m 0
 165 661 191 667 217 667 c 0
 246 667 276 660 301 641 c 0
 304 639 348 602 330 597 c 0
 324 595 316 601 312 606 c 0
 300 617 288 629 273 636 c 0
 256 645 235 649 214 649 c 0
 162 649 108 622 105 559 c 0
 105 557 105 555 105 553 c 0
 105 518 120 485 136 456 c 0
 163 406 197 364 235 325 c 0
 271 290 310 259 331 210 c 0
 340 188 348 159 348 132 c 0
 348 52 267 -1 202 -1 c 0
 156 -1 112 29 78 63 c 0
 75 67 40 104 40 119 c 0
 40 122 41 124 44 125 c 0
 52 128 60 114 64 108 c 0
 93 67 146 18 206 18 c 0
 242 18 276 34 304 69 c 0
 317 87 332 104 332 135 c 0
 332 168 318 205 302 229 c 0
 271 276 224 307 189 348 c 0
 177 361 166 376 156 390 c 0
 126 431 88 501 88 561 c 0
 88 598 103 631 142 651 c 0
EndSplineSet
EndChar

StartChar: two
Encoding: 50 50 44
Width: 349
VWidth: 0
Flags: W
HStem: 20 18<56.1096 249.56> 27 18<76.6748 308.868> 643 16<179.811 230.492>
VStem: 254 17<459.706 605.129>
LayerCount: 2
Back
Fore
SplineSet
68 20 m 0xb0
 54 20 41 23 41 39 c 0
 41 52 50 67 55 77 c 0
 72 108 98 165 116 194 c 0
 150 248 181 303 209 360 c 0
 231 405 253 457 254 508 c 0
 254 530 254 552 251 574 c 0
 247 599 244 643 210 643 c 0
 198 643 184 638 174 632 c 0
 131 611 97 572 76 530 c 0
 68 514 63 494 55 478 c 0
 52 472 45 472 42 478 c 0
 41 481 40 484 40 487 c 0
 40 505 57 532 64 544 c 0
 89 587 123 626 168 648 c 0
 180 654 196 659 211 659 c 0
 244 659 255 635 261 612 c 0
 268 587 271 558 271 530 c 0
 271 517 271 504 269 492 c 0
 246 329 114 185 56 38 c 1
 62 38 68 38 74 38 c 0xb0
 131 38 192 43 249 44 c 0
 254 44 269 45 283 45 c 0
 309 45 309 44 309 37 c 0
 309 29 290 27 274 27 c 0x70
 264 27 255 28 252 28 c 0
 200 26 144 29 92 22 c 0
 86 21 77 20 68 20 c 0xb0
EndSplineSet
Validated: 1
EndChar

StartChar: semicolon
Encoding: 59 59 45
Width: 128
VWidth: 0
Flags: W
HStem: 350 34<41.0698 85.6065>
VStem: 70.2314 18<-24.3923 74>
LayerCount: 2
Back
Fore
SplineSet
76.2314453125 384 m 0
 86.2314453125 386 89.2314453125 376 86.2314453125 368 c 0
 82.2314453125 359 72.2314453125 352 62.2314453125 350 c 0
 48.2314453125 348 31.2314453125 359 45.2314453125 373 c 0
 52.2314453125 380 67.2314453125 383 76.2314453125 384 c 0
56.2314453125 95 m 0
 56.2314453125 100 59.2314453125 103 63.2314453125 103 c 0
 75.2314453125 103 81.2314453125 74 83.2314453125 67 c 0
 86.2314453125 53 88.2314453125 38 88.2314453125 23 c 0
 88.2314453125 4 85.2314453125 -15 80.2314453125 -34 c 0
 77.2314453125 -44 72.2314453125 -63 62.2314453125 -67 c 0
 54.2314453125 -70 50.2314453125 -62 52.2314453125 -56 c 0
 61.2314453125 -25 70.2314453125 0 70.2314453125 30 c 0
 70.2314453125 38 70.2314453125 47 68.2314453125 56 c 0
 66.2314453125 63 56.2314453125 84 56.2314453125 95 c 0
EndSplineSet
EndChar

StartChar: quotedblright
Encoding: 8221 8221 46
Width: 207
VWidth: 0
Flags: W
HStem: 532 128
VStem: 40 22<532.928 625.805> 151 15<535.776 659.328>
LayerCount: 2
Back
Fore
SplineSet
44 597 m 0
 44 607 39 622 48 626 c 0
 60 631 62 606 62 595 c 0
 62 580 59 565 57 550 c 0
 56 544 56 534 49 532 c 0
 41 530 40 539 40 545 c 0
 41 563 44 580 44 597 c 0
154 660 m 0
 166 662 166 640 166 633 c 0
 168 606 166 581 162 554 c 0
 161 547 161 531 152 530 c 0
 141 529 144 546 145 552 c 0
 148 573 151 593 151 614 c 0
 151 620 150 626 150 632 c 0
 149 639 144 659 154 660 c 0
EndSplineSet
Validated: 33
EndChar

StartChar: parenleft
Encoding: 40 40 47
Width: 194
VWidth: 0
Flags: W
VStem: 40 17<171.362 425.764>
LayerCount: 2
Back
Fore
SplineSet
145 5 m 0
 145 1 140 -1 135 -1 c 0
 121 -1 102 18 96 26 c 0
 66 62 55 121 49 167 c 0
 43 209 40 252 40 296 c 0
 40 401 57 509 85 608 c 0
 95 641 103 674 118 706 c 0
 123 717 131 736 142 742 c 0
 149 746 156 739 154 732 c 0
 151 721 139 711 134 700 c 0
 121 672 112 643 104 614 c 0
 75 513 57 403 57 295 c 0
 57 254 60 213 65 174 c 0
 71 127 80 61 117 28 c 0
 121 25 145 13 145 5 c 0
EndSplineSet
Validated: 1
EndChar

StartChar: asciicircum
Encoding: 94 94 48
Width: 322
VWidth: 0
Flags: W
HStem: 650 20G<146.548 160.548>
VStem: 40.0479 242
LayerCount: 2
Back
Fore
SplineSet
282.047851562 544 m 0
 282.047851562 540 279.047851562 537 276.047851562 537 c 0
 266.047851562 537 251.047851562 557 247.047851562 561 c 0
 216.047851562 592 187.047851562 625 155.047851562 655 c 1
 135.047851562 623 112.047851562 593 90.0478515625 561 c 0
 81.0478515625 548 72.0478515625 531 59.0478515625 522 c 0
 54.0478515625 518 39.0478515625 515 40.0478515625 526 c 0
 41.0478515625 535 61.0478515625 549 67.0478515625 557 c 0
 87.0478515625 584 106.047851562 613 124.047851562 641 c 0
 130.047851562 651 140.047851562 669 153.047851562 670 c 2
 154.047851562 670 l 2
 167.047851562 670 177.047851562 657 186.047851562 648 c 0
 210.047851562 624 233.047851562 599 257.047851562 575 c 0
 262.047851562 570 282.047851562 554 282.047851562 544 c 0
EndSplineSet
EndChar

StartChar: p
Encoding: 112 112 49
Width: 366
VWidth: 0
Flags: W
HStem: 12 16<131.648 227.964> 347 15<112.848 205.172>
VStem: 40 18<-160.061 35 47 206.188 224.75 300.756> 47 15<-197.328 -10.7621 48.5496 270.296> 308 18<130.06 254.456>
LayerCount: 2
Back
Fore
SplineSet
326 192 m 0xe8
 326 102 272 12 187 12 c 2
 182 12 l 2
 143 14 96 23 58 35 c 1
 64 -191 l 1
 59 -200 53 -200 48 -191 c 1
 43 -117 40 -48 40 22 c 0xe8
 40 69 41 117 45 167 c 0
 47 186 47 205 47 224 c 0xd8
 47 240 47 256 46 271 c 0
 45 285 38 308 42 321 c 0
 45 332 55 325 58 319 c 1
 60 319 l 1
 68 335 86 344 102 351 c 0
 120 358 141 362 162 362 c 0
 195 362 228 354 254 339 c 0
 304 310 326 251 326 192 c 0xe8
153 347 m 0
 103 347 60 323 60 266 c 0
 60 251 62 237 62 223 c 0xd8
 62 164 58 106 58 47 c 1
 61 48 64 48 67 48 c 0
 78 48 91 44 102 42 c 0
 129 37 159 28 188 28 c 0
 205 28 221 31 236 40 c 0
 288 73 308 128 308 185 c 0
 308 201 307 217 304 233 c 0
 299 260 294 289 272 307 c 0
 246 329 198 347 153 347 c 0
EndSplineSet
Validated: 33
EndChar

StartChar: f
Encoding: 102 102 50
Width: 350
VWidth: 0
Flags: W
HStem: 343 17<40.1788 130.005> 349 17<45.9406 152.322 169.602 261.659> 659 17<199.788 251.074>
VStem: 147.036 16<7.19258 253.467> 151.036 16<169.637 343.717 365 597.312> 293.036 17<566.094 614.095>
LayerCount: 2
Back
Fore
SplineSet
153.036132812 365 m 1x74
 153.036132812 409 151.036132812 446 151.036132812 484 c 0
 151.036132812 514 152.036132812 545 156.036132812 580 c 0
 160.036132812 619 173.036132812 676 225.036132812 676 c 0
 263.036132812 676 299.036132812 640 305.036132812 604 c 0
 306.036132812 598 310.036132812 585 310.036132812 575 c 0
 310.036132812 571 309.036132812 568 308.036132812 566 c 0
 303.036132812 559 295.036132812 564 293.036132812 570 c 0
 288.036132812 584 290.036132812 600 285.036132812 614 c 0
 277.036132812 635 249.036132812 659 224.036132812 659 c 0
 182.036132812 659 175.036132812 605 172.036132812 575 c 0
 168.036132812 541 167.036132812 511 167.036132812 481 c 0x6c
 167.036132812 444 169.036132812 408 169.036132812 365 c 1
 181.036132812 369 197.036132812 370 212.036132812 370 c 0
 226.036132812 370 239.036132812 369 250.036132812 368 c 0
 256.036132812 368 276.036132812 368 273.036132812 357 c 0
 272.036132812 352 268.036132812 351 262.036132812 351 c 0
 254.036132812 351 243.036132812 354 236.036132812 354 c 0
 218.036132812 354 200.036132812 350 182.036132812 350 c 0
 178.036132812 350 173.036132812 351 169.036132812 351 c 1
 169.036132812 267 163.036132812 161 163.036132812 77 c 0
 163.036132812 64 163.036132812 50 163.036132812 36 c 0
 163.036132812 25 163.036132812 4 155.036132812 4 c 0
 153.036132812 4 151.036132812 5 149.036132812 7 c 0
 144.036132812 11 147.036132812 22 147.036132812 28 c 0
 147.036132812 38 147.036132812 49 147.036132812 60 c 0
 147.036132812 71 147.036132812 82 148.036132812 92 c 0
 152.036132812 146 152.036132812 202 152.036132812 256 c 0
 152.036132812 269 155.036132812 296 155.036132812 318 c 0
 155.036132812 329 154.036132812 338 152.036132812 344 c 0
 149.036132812 351 137.036132812 349 131.036132812 349 c 0x74
 109.036132812 349 87.0361328125 345 65.0361328125 343 c 0
 59.0361328125 342 39.0361328125 339 40.0361328125 351 c 0
 41.0361328125 361 59.0361328125 359 66.0361328125 360 c 0xb4
 88.0361328125 362 111.036132812 366 134.036132812 366 c 0
 140.036132812 366 147.036132812 366 153.036132812 365 c 1x74
EndSplineSet
EndChar

StartChar: x
Encoding: 120 120 51
Width: 385
VWidth: 0
Flags: W
HStem: 336 20G<90.5 97.5>
VStem: 189 23<191.68 213.667>
LayerCount: 2
Back
Fore
SplineSet
85 349 m 0
 85 353 89 356 92 356 c 0
 103 356 117 336 121 330 c 0
 146 297 182 255 197 216 c 1
 235 249 270 292 303 330 c 0
 310 338 328 369 341 365 c 0
 344 364 345 362 345 360 c 0
 345 349 323 327 319 322 c 0
 293 292 265 265 239 236 c 0
 232 228 212 213 212 201 c 0
 212 187 233 170 240 160 c 0
 262 130 279 97 298 66 c 0
 308 51 323 29 323 7 c 0
 323 2 322 0 320 0 c 0
 312 0 288 48 287 50 c 0
 254 95 233 146 197 188 c 1
 168 142 108 76 77 32 c 0
 73 25 58 -2 46 -2 c 0
 43 -2 40 -1 40 3 c 0
 40 17 81 64 86 70 c 0
 117 113 149 167 189 202 c 1
 189 204 l 1
 156 231 135 282 110 316 c 0
 106 322 85 339 85 349 c 0
EndSplineSet
EndChar

StartChar: E
Encoding: 69 69 52
Width: 410
VWidth: 0
Flags: W
HStem: 6 20<88.3232 167.621> 20 18<145.087 368.033> 336 22<142.98 306.536> 649 17<119.242 369.985>
VStem: 42.0859 17<341.425 639.909> 55.0859 14<72.0029 313.875> 61.0859 15<35.0186 207.624 208.609 223.032>
LayerCount: 2
Back
Fore
SplineSet
102.0859375 661 m 0xb8
 185.0859375 665 267.0859375 666 351.0859375 666 c 0
 356.0859375 666 368.0859375 666 370.0859375 659 c 0
 372.0859375 650 360.0859375 649 354.0859375 649 c 0
 336.0859375 649 318.0859375 649 300.0859375 649 c 0
 220.0859375 649 139.0859375 649 59.0859375 639 c 1xb8
 66.0859375 337 l 1
 127.0859375 348 187.0859375 351 249.0859375 353 c 0
 264.0859375 353 280.0859375 357 295.0859375 358 c 0
 300.0859375 358 308.0859375 356 307.0859375 349 c 0
 305.0859375 333 261.0859375 337 250.0859375 336 c 0
 221.0859375 333 191.0859375 335 162.0859375 333 c 0
 130.0859375 330 98.0859375 322 66.0859375 320 c 1
 69.0859375 306 69.0859375 292 69.0859375 277 c 2
 69.0859375 225 l 2xb4
 70.0859375 183 72.0859375 142 76.0859375 101 c 1
 76.0859375 72 l 2
 76.0859375 55 78.0859375 37 88.0859375 30 c 0
 93.0859375 27 102.0859375 26 111.0859375 26 c 0xb2
 125.0859375 26 140.0859375 28 148.0859375 30 c 0
 175.0859375 36 201.0859375 38 228.0859375 38 c 0
 256.0859375 38 284.0859375 36 314.0859375 36 c 0
 326.0859375 36 339.0859375 36 352.0859375 37 c 0
 357.0859375 37 367.0859375 37 368.0859375 30 c 0
 369.0859375 22 359.0859375 20 353.0859375 20 c 0
 339.0859375 19 326.0859375 19 313.0859375 19 c 0
 286.0859375 19 259.0859375 20 233.0859375 20 c 0x72
 200.0859375 20 168.0859375 18 136.0859375 9 c 0
 129.0859375 7 120.0859375 6 110.0859375 6 c 0
 96.0859375 6 81.0859375 9 73.0859375 18 c 0
 62.0859375 30 61.0859375 51 61.0859375 67 c 2
 61.0859375 75 l 2xb2
 61.0859375 110 57.0859375 148 55.0859375 183 c 0
 55.0859375 191 54.0859375 200 54.0859375 208 c 0
 54.0859375 221 55.0859375 234 55.0859375 247 c 0xb4
 55.0859375 268 54.0859375 290 50.0859375 310 c 0
 49.0859375 316 41.0859375 318 40.0859375 324 c 0
 39.0859375 331 47.0859375 335 48.0859375 341 c 0
 50.0859375 350 48.0859375 363 47.0859375 372 c 0
 44.0859375 421 42.0859375 470 42.0859375 519 c 0
 42.0859375 542 42.0859375 566 43.0859375 589 c 0
 43.0859375 592 43.0859375 595 43.0859375 598 c 0
 43.0859375 610 42.0859375 621 42.0859375 633 c 0
 42.0859375 638 42.0859375 644 43.0859375 649 c 0
 44.0859375 661 90.0859375 661 102.0859375 661 c 0xb8
EndSplineSet
EndChar

StartChar: T
Encoding: 84 84 53
Width: 549
VWidth: 0
Flags: W
HStem: 645 16<248.436 508.129>
VStem: 263.279 15<335.952 620.403>
LayerCount: 2
Back
Fore
SplineSet
384.279296875 661 m 0
 398.279296875 662 411.279296875 663 425.279296875 663 c 2
 480.279296875 662 l 2
 486.279296875 662 512.279296875 665 508.279296875 652 c 0
 505.279296875 643 489.279296875 646 482.279296875 646 c 0
 454.279296875 646 427.279296875 645 400.279296875 645 c 0
 309.279296875 644 216.279296875 643 125.279296875 635 c 0
 103.279296875 633 81.279296875 633 59.279296875 631 c 0
 53.279296875 630 42.279296875 628 40.279296875 636 c 0
 37.279296875 648 59.279296875 648 66.279296875 648 c 0
 96.279296875 650 127.279296875 650 157.279296875 653 c 0
 187.279296875 656 216.279296875 654 246.279296875 656 c 0
 292.279296875 659 338.279296875 657 384.279296875 661 c 0
263.279296875 421 m 0
 263.279296875 482 260.279296875 538 258.279296875 596 c 0
 258.279296875 603 252.279296875 622 262.279296875 624 c 0
 274.279296875 627 274.279296875 607 274.279296875 600 c 0
 275.279296875 571 276.279296875 541 278.279296875 512 c 0
 285.279296875 391 281.279296875 257 285.279296875 136 c 0
 286.279296875 104 287.279296875 71 291.279296875 39 c 0
 292.279296875 35 294.279296875 27 294.279296875 20 c 0
 294.279296875 14 292.279296875 8 286.279296875 8 c 0
 276.279296875 7 276.279296875 30 275.279296875 37 c 0
 272.279296875 70 272.279296875 102 269.279296875 135 c 0
 264.279296875 191 263.279296875 250 263.279296875 310 c 0
 263.279296875 347 263.279296875 385 263.279296875 421 c 0
EndSplineSet
EndChar

StartChar: three
Encoding: 51 51 54
Width: 412
VWidth: 0
Flags: W
HStem: 18 15<157.3 229.089> 363 17<259.174 303.879> 653 16<171.733 252.046>
VStem: 294 17<482.264 609.811> 356 16<188.987 300.284>
LayerCount: 2
Back
Fore
SplineSet
65 82 m 0
 65 86 69 89 72 89 c 0
 82 89 96 74 102 70 c 0
 129 50 164 33 198 33 c 2
 206 33 l 2
 231 35 255 54 274 69 c 0
 330 112 353 176 356 244 c 2
 356 252 l 2
 356 283 350 316 327 339 c 0
 312 354 290 363 268 363 c 0
 235 363 220 341 200 327 c 0
 196 325 180 313 171 313 c 0
 168 313 165 314 165 319 c 0
 164 328 176 335 182 340 c 0
 201 355 224 366 240 384 c 0
 279 427 294 499 294 557 c 2
 294 562 l 2
 294 586 289 615 271 632 c 0
 256 647 236 653 215 653 c 0
 164 653 107 618 82 586 c 0
 72 573 65 559 59 544 c 0
 57 538 57 527 52 523 c 0
 44 515 40 527 40 534 c 0
 41 550 51 566 58 580 c 0
 84 628 151 669 213 669 c 0
 234 669 254 664 272 653 c 0
 304 633 311 593 311 549 c 0
 311 491 293 421 258 380 c 1
 338 380 372 318 372 246 c 0
 372 244 372 242 372 240 c 0
 369 145 301 18 196 18 c 0
 148 18 117 38 86 60 c 0
 81 63 65 74 65 82 c 0
EndSplineSet
Validated: 1
EndChar

StartChar: hyphen
Encoding: 45 45 55
Width: 336
VWidth: 0
Flags: W
HStem: 185 16<97.3291 279.891> 192 13<273.203 294.493>
VStem: 41.3604 253
LayerCount: 2
Back
Fore
SplineSet
62.3603515625 206 m 4xa0
 73.3603515625 207 84.3603515625 208 95.3603515625 208 c 4
 137.360351562 208 179.360351562 201 221.360351562 201 c 4xa0
 230.360351562 201 240.360351562 201 250.360351562 202 c 4
 259.360351562 203 270.360351562 206 280.360351562 206 c 4
 283.360351562 206 285.360351562 205 287.360351562 205 c 4
 293.360351562 204 299.360351562 198 294.360351562 192 c 4x60
 288.360351562 186 272.360351562 185 259.360351562 185 c 6
 228.360351562 185 l 6
 185.360351562 185 143.360351562 191 99.3603515625 191 c 4
 92.3603515625 191 75.3603515625 188 61.3603515625 188 c 4
 52.3603515625 188 43.3603515625 190 41.3603515625 194 c 4
 34.3603515625 206 56.3603515625 205 62.3603515625 206 c 4xa0
EndSplineSet
EndChar

StartChar: at
Encoding: 64 64 56
Width: 489
VWidth: 0
Flags: W
HStem: 91 13<207.917 296.228> 266 16<153.403 186.078> 278 18<284.793 317.585> 413 16<218.607 251.639> 609 16<222.517 310.521>
VStem: 40 15<253.961 374.39> 137 16<282.386 325.206> 252 18<376.572 412.608> 384 17<413.301 534.544>
LayerCount: 2
Back
Fore
SplineSet
242 429 m 0xdf80
 261 429 270 416 270 394 c 0
 270 380 267 367 267 353 c 0
 267 345 268 338 271 330 c 0
 275 319 286 296 299 296 c 0
 301 296 302 296 304 297 c 0
 339 311 362 360 371 394 c 0
 378 421 384 452 384 481 c 0
 384 527 370 571 324 595 c 0
 308 604 289 609 267 609 c 0
 191 609 133 546 100 480 c 0
 75 430 55 369 55 311 c 0
 55 274 63 238 83 206 c 0
 99 180 125 158 150 141 c 0
 178 122 205 104 249 104 c 0
 300 104 348 128 394 148 c 0
 411 156 421 169 436 179 c 0
 440 182 447 182 449 176 c 0
 449 175 449 174 449 173 c 0
 449 163 434 153 428 148 c 0
 401 127 365 118 334 106 c 0
 309 96 282 91 255 91 c 0
 178 91 102 131 65 204 c 0
 48 238 40 277 40 316 c 0
 40 405 79 499 135 561 c 0
 170 599 221 625 271 625 c 0
 305 625 339 613 366 586 c 0
 391 561 401 522 401 480 c 0
 401 432 388 382 371 348 c 0
 360 327 331 278 300 278 c 0xbf80
 296 278 292 279 288 281 c 0
 263 293 257 322 248 346 c 1
 239 318 209 287 184 272 c 0
 178 268 170 266 163 266 c 0
 147 266 137 278 137 295 c 0
 137 304 139 312 141 320 c 0
 152 356 181 395 210 418 c 0
 218 424 230 429 242 429 c 0xdf80
235 413 m 1
 203 407 171 352 160 324 c 0
 158 318 153 305 153 295 c 0
 153 287 155 282 163 282 c 0
 164 282 165 282 166 282 c 0xdf80
 209 288 227 348 244 378 c 0
 248 384 252 394 252 402 c 0
 252 408 249 413 240 413 c 2
 235 413 l 1
EndSplineSet
Validated: 1
EndChar

StartChar: parenright
Encoding: 41 41 57
Width: 183
VWidth: 0
Flags: W
VStem: 53 27<6.18476 49.5348> 125 18<227.071 480.473>
LayerCount: 2
Back
Fore
SplineSet
45 736 m 2
 47 736 l 2
 60 736 72 711 76 702 c 0
 95 661 106 618 117 574 c 0
 134 503 143 426 143 349 c 0
 143 262 132 174 106 96 c 0
 94 60 83 36 80 29 c 0
 77 21 71 4 60 4 c 0
 55 4 53 8 53 13 c 0
 53 22 58 34 59 38 c 0
 60 42 75 59 87 92 c 0
 103 135 110 182 116 227 c 0
 122 270 125 314 125 358 c 0
 125 430 117 503 100 572 c 0
 90 615 79 659 59 698 c 0
 57 703 40 722 40 731 c 0
 40 734 41 735 45 736 c 2
EndSplineSet
EndChar

StartChar: grave
Encoding: 96 96 58
Width: 183
VWidth: 0
Flags: W
HStem: 566 131
LayerCount: 2
Back
Fore
SplineSet
53.9072265625 677 m 1
 30.9072265625 673 39.9072265625 706 55.9072265625 697 c 0
 69.9072265625 690 74.9072265625 670 80.9072265625 657 c 0
 92.9072265625 633 104.907226562 614 123.907226562 595 c 0
 128.907226562 590 142.907226562 579 142.907226562 570 c 0
 142.907226562 569 142.907226562 567 141.907226562 566 c 0
 140.907226562 564 138.907226562 563 136.907226562 563 c 0
 127.907226562 563 113.907226562 580 109.907226562 584 c 0
 84.9072265625 610 63.9072265625 642 53.9072265625 677 c 1
EndSplineSet
EndChar

StartChar: a
Encoding: 97 97 59
Width: 437
VWidth: 0
Flags: W
HStem: 1 20<90.8868 160.222> 347 19<158.154 247.358>
VStem: 40 18<67.5145 192.571> 325 21<254 294.965>
LayerCount: 2
Back
Fore
SplineSet
336 295 m 0
 346 295 347 283 347 271 c 0
 347 260 346 247 346 240 c 0
 346 239 346 238 346 237 c 0
 350 183 359 127 372 74 c 0
 376 58 381 42 388 28 c 0
 392 22 399 16 397 9 c 0
 395 4 393 2 391 2 c 0
 380 2 364 33 362 38 c 0
 345 86 334 141 332 192 c 1
 329 192 l 1
 320 120 234 43 171 15 c 4
 156 8 134 1 115 1 c 4
 67 1 47 58 42 94 c 0
 41 104 40 115 40 126 c 0
 40 197 69 286 115 331 c 0
 137 353 168 366 200 366 c 0
 235 366 270 351 294 326 c 0
 321 299 317 281 325 254 c 1
 325 255 325 256 325 257 c 0
 325 268 325 295 336 295 c 0
58 121 m 0
 58 79 74 21 120 21 c 4
 145 21 172 35 192 49 c 4
 213 63 233 82 251 100 c 0
 276 125 307 178 312 214 c 0
 312 231 311 259 306 271 c 0
 284 322 265 346 201 347 c 2
 200 347 l 2
 110 347 73 243 62 167 c 0
 60 153 58 137 58 121 c 0
EndSplineSet
EndChar

StartChar: t
Encoding: 116 116 60
Width: 323
VWidth: 0
Flags: W
HStem: -1 21<207.907 259.195> 340 17<58.3828 152.048 168.048 196.173>
VStem: 146.048 18<106.938 344 362 455.715> 158.048 20<62.9753 136.282 382.188 582.053>
LayerCount: 2
Back
Fore
SplineSet
171.047851562 583 m 0xd0
 177.047851562 583 178.047851562 576 178.047851562 568 c 0xd0
 178.047851562 556 175.047851562 539 174.047851562 534 c 0
 170.047851562 482 168.047851562 414 168.047851562 362 c 1
 193.047851562 366 218.047851562 367 243.047851562 369 c 0
 249.047851562 370 265.047851562 372 265.047851562 362 c 0
 265.047851562 353 249.047851562 353 243.047851562 353 c 0
 218.047851562 351 193.047851562 347 168.047851562 346 c 1
 168.047851562 296 164.047851562 261 164.047851562 211 c 0
 164.047851562 170 167.047851562 128 177.047851562 88 c 0
 183.047851562 65 205.047851562 18 232.047851562 16 c 0
 239.047851562 15 245.047851562 20 252.047851562 20 c 0
 257.047851562 20 263.047851562 17 260.047851562 11 c 0
 256.047851562 2 243.047851562 -1 233.047851562 -1 c 0
 196.047851562 -1 173.047851562 47 163.047851562 76 c 0
 150.047851562 117 146.047851562 159 146.047851562 202 c 0xe0
 146.047851562 255 152.047851562 292 152.047851562 344 c 1
 139.047851562 341 125.047851562 340 110.047851562 340 c 0
 100.047851562 340 89.0478515625 341 80.0478515625 341 c 0
 73.0478515625 341 59.0478515625 341 58.0478515625 350 c 0
 57.0478515625 361 72.0478515625 357 78.0478515625 357 c 0
 81.0478515625 357 83.0478515625 357 86.0478515625 357 c 0
 101.047851562 357 109.047851562 357 125.047851562 357 c 0
 131.047851562 357 146.047851562 359 152.047851562 358 c 1
 153.047851562 412 156.047851562 482 158.047851562 536 c 0
 158.047851562 545 158.047851562 583 171.047851562 583 c 0xd0
EndSplineSet
EndChar

StartChar: y
Encoding: 121 121 61
Width: 353
VWidth: 0
Flags: W
HStem: -194 21<123.227 235.933>
VStem: 47.5342 18<185.641 368.942> 281.534 17<128.1 218.673> 296.534 16<-78.1928 117.823>
LayerCount: 2
Back
Fore
SplineSet
283.534179688 219 m 1xe0
 272.534179688 206 269.534179688 184 261.534179688 169 c 0
 231.534179688 105 195.534179688 48 138.534179688 13 c 0
 14.5341796875 -57 39.5341796875 234 47.5341796875 344 c 4
 47.5341796875 352 46.5341796875 368 56.5341796875 369 c 4
 65.5341796875 370 65.5341796875 358 65.5341796875 351 c 4
 65.5341796875 331 62.5341796875 307 61.5341796875 287 c 0
 59.5341796875 254 56.5341796875 219 56.5341796875 184 c 0
 56.5341796875 147 59.5341796875 110 66.5341796875 76 c 0
 70.5341796875 53 82.5341796875 20 104.534179688 20 c 0
 107.534179688 20 111.534179688 21 114.534179688 22 c 0
 197.534179688 53 249.534179688 171 272.534179688 257 c 0
 278.534179688 283 279.534179688 323 283.534179688 349 c 4
 284.534179688 357 288.534179688 371 298.534179688 367 c 4
 307.534179688 363 306.534179688 346 305.534179688 338 c 4
 302.534179688 310 298.534179688 272 298.534179688 242 c 0
 298.534179688 237 298.534179688 232 298.534179688 228 c 0xe0
 303.534179688 158 312.534179688 85 312.534179688 14 c 0
 312.534179688 -60 307.534179688 -128 264.534179688 -170 c 0
 246.534179688 -188 218.534179688 -194 190.534179688 -194 c 0
 162.534179688 -194 134.534179688 -188 112.534179688 -181 c 0
 102.534179688 -177 68.5341796875 -172 68.5341796875 -157 c 0
 68.5341796875 -151 71.5341796875 -149 77.5341796875 -149 c 0
 88.5341796875 -149 107.534179688 -158 112.534179688 -159 c 0
 134.534179688 -167 161.534179688 -173 187.534179688 -173 c 0
 218.534179688 -173 248.534179688 -164 267.534179688 -134 c 0
 289.534179688 -97 296.534179688 -50 296.534179688 -2 c 0xd0
 296.534179688 44 290.534179688 91 287.534179688 131 c 0
 286.534179688 150 281.534179688 176 281.534179688 198 c 0
 281.534179688 206 282.534179688 212 283.534179688 219 c 1xe0
EndSplineSet
EndChar

StartChar: F
Encoding: 70 70 62
Width: 383
VWidth: 0
Flags: W
HStem: 332 18<79.939 276.986> 648 17<150.276 342.344>
VStem: 68 17<4.15224 332.426 352.516 617.107>
LayerCount: 2
Back
Fore
SplineSet
257 350 m 0
 268 350 277 349 277 341 c 0
 277 333 258 332 245 332 c 2
 233 332 l 2
 182 332 130 334 79 334 c 1
 82 324 82 313 82 302 c 0
 82 287 81 271 81 258 c 0
 81 213 84 113 84 68 c 0
 84 50 84 32 85 14 c 0
 85 9 83 2 76 4 c 0
 66 7 68 26 68 34 c 2
 67 188 l 2
 67 239 60 291 60 342 c 2
 60 356 l 2
 60 410 65 467 65 522 c 0
 65 550 64 578 63 606 c 0
 63 614 58 627 64 634 c 0
 76 647 105 651 121 653 c 0
 172 660 226 664 277 664 c 0
 283 664 294 665 306 665 c 0
 324 665 343 663 343 654 c 2
 343 652 l 2
 341 645 333 646 328 647 c 0
 320 648 311 648 302 648 c 2
 255 648 l 2
 196 648 125 646 77 618 c 1
 83 599 85 577 85 555 c 0
 85 520 80 483 80 451 c 0
 80 431 82 409 82 388 c 0
 82 375 82 363 79 352 c 1
 99 347 121 346 143 346 c 0
 172 346 201 348 227 348 c 0
 232 348 246 350 257 350 c 0
EndSplineSet
EndChar

StartChar: U
Encoding: 85 85 63
Width: 493
VWidth: 0
Flags: W
HStem: 7 16<181.653 261.479> 650 20G<49.5 53.5>
VStem: 40 18<356.776 667.856> 424 22<570.594 658.202> 436 17<388.968 626.489>
LayerCount: 2
Back
Fore
SplineSet
424 648 m 0xf0
 424 654 426 659 432 659 c 0
 444 659 445 627 446 619 c 0xf0
 451 591 453 561 453 531 c 0
 453 513 452 495 451 478 c 0
 441 355 442 218 376 112 c 0
 343 59 302 7 220 7 c 0
 184 7 151 21 124 55 c 0
 109 74 100 97 91 119 c 0
 48 227 48 357 46 473 c 0
 45 522 42 570 42 619 c 0
 42 625 40 637 40 648 c 0
 40 657 41 665 45 668 c 0
 47 670 49 670 50 670 c 0
 57 670 58 653 58 643 c 0
 58 640 58 637 58 636 c 0
 58 594 59 549 61 507 c 0
 67 385 61 258 100 140 c 0
 118 84 154 23 218 23 c 0
 283 23 331 70 365 127 c 0
 430 241 436 386 436 527 c 0xe8
 436 557 435 587 430 617 c 0
 429 622 424 637 424 648 c 0xf0
EndSplineSet
EndChar

StartChar: four
Encoding: 52 52 64
Width: 376
VWidth: 0
Flags: W
HStem: 286 18<57.0262 316.891>
VStem: 40 17<304.07 337.993> 168 19<592.918 649.765> 307 17<456.448 674.965> 319 17<3.36551 296 306 467.336>
LayerCount: 2
Back
Fore
SplineSet
66 286 m 0xe8
 50 286 40 293 40 309 c 0
 40 333 63 369 70 384 c 0
 101 451 134 518 157 588 c 0
 161 601 166 615 168 628 c 0
 169 635 165 643 168 649 c 0
 171 656 180 655 183 650 c 0
 186 645 187 639 187 633 c 0
 187 608 169 573 163 556 c 0
 142 501 119 445 93 392 c 0
 81 367 57 333 57 306 c 2
 57 304 l 1
 240 307 l 1
 319 306 l 1xe8
 319 412 308 518 308 624 c 0
 308 629 307 641 307 652 c 0
 307 664 308 675 315 675 c 0
 324 675 324 663 324 651 c 2
 324 636 l 2xf0
 327 597 324 557 328 518 c 0
 335 441 336 363 336 285 c 0
 336 215 336 146 336 76 c 0
 336 69 336 5 327 3 c 0
 320 3 319 56 319 61 c 2
 319 296 l 1
 308 289 293 288 277 288 c 0
 256 288 233 291 215 291 c 2
 211 291 l 2
 172 290 132 289 93 288 c 0
 86 288 76 286 66 286 c 0xe8
EndSplineSet
Validated: 1
EndChar

StartChar: endash
Encoding: 8211 8211 65
Width: 334
VWidth: 0
Flags: W
HStem: 319 17<102.05 291.718> 330 14<41.0291 164.039>
LayerCount: 2
Back
Fore
SplineSet
44.052734375 344 m 0x40
 49.052734375 347 56.052734375 348 64.052734375 348 c 0
 78.052734375 348 95.052734375 345 105.052734375 344 c 0x40
 151.052734375 340 199.052734375 336 245.052734375 336 c 0
 256.052734375 336 268.052734375 340 279.052734375 340 c 0
 288.052734375 340 299.052734375 335 292.052734375 327 c 0
 285.052734375 320 269.052734375 319 254.052734375 319 c 0x80
 244.052734375 319 235.052734375 320 229.052734375 320 c 0
 169.052734375 323 108.052734375 325 49.052734375 330 c 0
 41.052734375 331 36.052734375 339 44.052734375 344 c 0x40
EndSplineSet
EndChar

StartChar: slash
Encoding: 47 47 66
Width: 392
VWidth: 0
Flags: W
LayerCount: 2
Back
Fore
SplineSet
343 648 m 0
 359 657 348 624 346 620 c 0
 332 589 317 558 301 528 c 0
 237 408 170 289 109 168 c 0
 92 134 76 100 64 64 c 0
 61 55 59 30 49 27 c 0
 48 27 47 26 46 26 c 0
 41 26 40 30 40 35 c 0
 40 45 45 59 46 62 c 0
 58 99 75 135 92 170 c 0
 121 230 154 287 186 346 c 0
 218 406 248 467 281 526 c 0
 297 555 312 584 325 614 c 0
 329 623 334 643 343 648 c 0
EndSplineSet
EndChar

StartChar: asterisk
Encoding: 42 42 67
Width: 314
VWidth: 0
Flags: W
HStem: 531 1<45.2822 52.0486> 541 15<70.2532 131.08> 546 17<197.916 266.432>
VStem: 153.188 16<401.097 509.438 560 649.124>
LayerCount: 2
Back
Fore
SplineSet
153.188476562 560 m 1xd0
 153.188476562 587 154.188476562 614 157.188476562 641 c 0
 158.188476562 648 161.188476562 668 173.188476562 662 c 0
 183.188476562 657 174.188476562 644 173.188476562 636 c 0
 170.188476562 610 169.188476562 584 169.188476562 558 c 1
 195.188476562 578 218.188476562 606 239.188476562 632 c 0
 245.188476562 640 256.188476562 658 267.188476562 658 c 0
 284.188476562 658 262.188476562 634 259.188476562 630 c 0
 240.188476562 605 219.188476562 582 197.188476562 560 c 1
 214.188476562 560 232.188476562 563 250.188476562 563 c 0
 252.188476562 563 254.188476562 563 256.188476562 563 c 0
 263.188476562 562 271.188476562 556 264.188476562 550 c 0
 258.188476562 545 246.188476562 546 239.188476562 546 c 0xb0
 219.188476562 545 196.188476562 547 177.188476562 540 c 1
 177.188476562 538 l 1
 202.188476562 522 223.188476562 502 249.188476562 488 c 0
 255.188476562 485 270.188476562 478 265.188476562 469 c 0
 264.188476562 467 262.188476562 466 259.188476562 466 c 0
 238.188476562 466 178.188476562 516 169.188476562 524 c 1
 169.188476562 432 l 2
 169.188476562 428 170.188476562 422 170.188476562 416 c 0
 170.188476562 409 169.188476562 403 164.188476562 401 c 0
 151.188476562 396 153.188476562 418 153.188476562 424 c 0
 152.188476562 440 152.188476562 457 152.188476562 474 c 0
 152.188476562 486 152.188476562 498 153.188476562 510 c 1
 137.188476562 493 123.188476562 475 110.188476562 456 c 0
 107.188476562 451 99.1884765625 441 92.1884765625 446 c 0
 84.1884765625 452 96.1884765625 467 100.188476562 472 c 0
 116.188476562 495 136.188476562 516 153.188476562 538 c 1
 146.188476562 540 137.188476562 541 129.188476562 541 c 0
 112.188476562 541 93.1884765625 538 78.1884765625 535 c 0
 71.1884765625 534 60.1884765625 531 52.1884765625 531 c 0
 49.1884765625 531 47.1884765625 531 45.1884765625 532 c 0
 31.1884765625 538 49.1884765625 547 56.1884765625 548 c 0
 81.1884765625 552 106.188476562 556 131.188476562 556 c 1
 116.188476562 573 102.188476562 591 87.1884765625 608 c 0
 83.1884765625 612 72.1884765625 623 83.1884765625 627 c 0
 91.1884765625 630 100.188476562 619 104.188476562 614 c 0
 120.188476562 595 135.188476562 577 153.188476562 560 c 1xd0
EndSplineSet
EndChar

StartChar: braceleft
Encoding: 123 123 68
Width: 328
VWidth: 0
Flags: W
HStem: -8 15<213.66 267.476> 381 15<66.4399 94.8913> 673 14<175.427 230.738>
VStem: 97 13<534.68 611.507> 104 11<322.014 366.009> 139 13<341.973 415.556>
LayerCount: 2
Back
Fore
SplineSet
87 396 m 0xec
 114 396 115 352 115 322 c 1xec
 133 335 139 352 139 371 c 0
 139 386 135 403 132 419 c 0
 123 464 97 524 97 576 c 0
 97 643 152 687 210 687 c 0
 223 687 249 684 249 669 c 0
 249 663 244 661 240 662 c 0
 228 666 224 673 212 673 c 0
 163 673 110 638 110 579 c 0xf4
 110 549 121 517 129 491 c 0
 138 459 144 426 150 394 c 0
 151 387 152 380 152 372 c 0
 152 344 142 313 115 308 c 1
 122 257 131 162 142 111 c 0
 146 93 147 67 159 53 c 0
 178 31 216 7 245 7 c 0
 260 7 268 18 282 18 c 0
 285 18 288 17 288 13 c 0
 288 0 258 -8 247 -8 c 0
 216 -8 175 16 153 39 c 0
 137 55 136 80 131 102 c 0
 119 154 109 250 103 303 c 1
 94 299 84 296 74 296 c 0
 52 296 40 324 40 347 c 0
 40 370 63 396 87 396 c 0xec
84 381 m 0
 70 381 54 365 52 352 c 0
 50 334 59 306 79 310 c 0
 85 311 99 314 102 320 c 0
 104 324 104 330 104 336 c 0
 104 355 97 381 84 381 c 0
EndSplineSet
EndChar

StartChar: g
Encoding: 103 103 69
Width: 379
VWidth: 0
Flags: W
HStem: -196 20<170.827 256.107> -153 49<60.0293 94.2308> 4 19<86.2669 165.807> 351 16<198.546 274.279>
VStem: 40 19<55.7625 163.34> 312 27<197.31 325.772> 322 14<-49.7148 148.077>
LayerCount: 2
Back
Fore
SplineSet
312 161 m 1xfc
 291 85 226 28 156 10 c 0
 143 7 130 4 117 4 c 0
 97 4 79 10 63 28 c 0
 46 47 40 74 40 101 c 0
 40 123 44 145 49 164 c 0
 65 232 99 293 153 336 c 0
 177 355 209 367 239 367 c 0
 267 367 295 357 317 336 c 0
 334 320 339 300 339 278 c 0xfc
 339 249 330 224 330 196 c 0
 330 194 331 193 331 191 c 0
 334 111 336 109 336 29 c 0
 336 -47 330 -116 287 -167 c 0
 268 -189 245 -196 221 -196 c 0
 180 -196 135 -172 100 -153 c 0
 86 -146 48 -130 45 -113 c 2
 45 -109 l 2
 45 -105 47 -104 51 -104 c 0
 63 -104 88 -121 91 -124 c 0
 125 -145 174 -176 218 -176 c 0
 239 -176 259 -169 275 -150 c 0
 311 -106 321 -40 321 26 c 0
 321 52 322 52 322 54 c 0xfa
 322 56 321 59 320 75 c 0
 318 103 320 134 312 161 c 1xfc
224 350 m 0
 132 335 80 229 63 142 c 0
 61 131 59 119 59 107 c 0
 59 66 73 23 116 23 c 0
 119 23 122 23 125 23 c 0
 216 34 284 106 307 200 c 0
 311 215 312 231 312 247 c 2
 312 277 l 2
 312 284 314 293 314 301 c 0
 314 305 314 309 312 312 c 0
 301 337 263 351 236 351 c 0
 231 351 228 351 224 350 c 0
EndSplineSet
EndChar

StartChar: i
Encoding: 105 105 70
Width: 186
VWidth: 0
Flags: W
HStem: 2 15<94.1761 112.788> 349 20G<72.6611 83.1611>
VStem: 63.1611 16<66.8342 343.896>
LayerCount: 2
Back
Fore
SplineSet
73.701171875 511.099609375 m 0
 94.6962890625 516.719726562 97.92578125 487.21484375 80.1611328125 483 c 0
 60.78125 478.78515625 54.3212890625 505.48046875 73.701171875 511.099609375 c 0
95.1611328125 17 m 5
 100.161132812 20 121.161132812 28 115.161132812 13 c 4
 112.161132812 6 105.161132812 2 98.1611328125 2 c 4
 80.1611328125 2 75.1611328125 23 74.1611328125 38 c 4
 68.1611328125 83 63.1611328125 162 63.1611328125 219 c 0
 63.1611328125 238 64.1611328125 257 65.1611328125 272 c 0
 66.1611328125 286 65.1611328125 369 80.1611328125 369 c 0
 86.1611328125 369 88.1611328125 363 88.1611328125 358 c 0
 87.1611328125 341 82.1611328125 290 81.1611328125 273 c 0
 80.1611328125 254 79.1611328125 231 79.1611328125 207 c 0
 79.1611328125 147 84.1611328125 64 95.1611328125 17 c 5
EndSplineSet
EndChar

StartChar: z
Encoding: 122 122 71
Width: 337
VWidth: 0
Flags: W
HStem: 4 17<59.5861 296.017> 347 18<69.145 240.324>
VStem: 40 257<7.30691 20.9908>
LayerCount: 2
Back
Fore
SplineSet
68 4 m 0
 54 4 40 7 40 21 c 0
 40 43 73 87 82 102 c 0
 127 175 204 270 255 337 c 1
 216 343 176 347 133 347 c 0
 115 347 94 344 76 346 c 0
 70 347 65 352 69 358 c 0
 72 363 81 364 89 364 c 0
 93 364 98 364 101 364 c 0
 110 364 118 365 127 365 c 0
 159 365 193 360 225 357 c 0
 237 356 272 357 274 341 c 0
 275 332 266 323 261 317 c 0
 213 263 146 172 107 110 c 0
 92 86 70 48 59 22 c 1
 64 21 69 21 74 21 c 0
 90 21 107 24 123 24 c 0
 150 24 176 24 202 24 c 0
 215 24 228 24 241 24 c 0
 247 24 259 25 271 25 c 0
 285 25 297 23 297 16 c 0
 297 3 268 2 254 2 c 0
 213 2 171 7 129 7 c 0
 118 7 106 6 95 6 c 0
 89 6 78 4 68 4 c 0
EndSplineSet
EndChar

StartChar: I
Encoding: 73 73 72
Width: 121
VWidth: 0
Flags: W
HStem: 6 21G<62 76.5>
VStem: 40 18<146.362 608.92> 47 17<42.4395 420.592 426.828 663.756>
LayerCount: 2
Back
Fore
SplineSet
81 13 m 0xc0
 81 9 79 6 74 6 c 0
 50 6 47 117 47 142 c 0xa0
 46 235 40 331 40 425 c 0xc0
 40 464 41 503 44 542 c 0
 47 572 44 603 47 633 c 0
 48 641 45 659 54 664 c 0
 66 670 64 644 64 639 c 0xa0
 63 607 60 574 60 542 c 0
 59 481 58 420 58 358 c 0
 58 289 59 220 63 151 c 0
 65 114 63 75 73 39 c 0
 74 34 81 21 81 13 c 0xc0
EndSplineSet
Validated: 33
EndChar

StartChar: V
Encoding: 86 86 73
Width: 487
VWidth: 0
Flags: W
HStem: 6 21G<221 232>
LayerCount: 2
Back
Fore
SplineSet
440 671 m 0
 444 671 447 665 447 661 c 0
 447 653 441 642 440 636 c 0
 430 604 430 607 423 575 c 0
 390 431 331 293 283 154 c 0
 270 116 254 78 243 40 c 0
 240 30 238 6 226 6 c 0
 216 6 212 23 208 31 c 0
 195 60 185 91 176 122 c 0
 138 252 100 385 73 518 c 0
 66 554 57 590 47 626 c 0
 46 631 40 643 40 652 c 0
 40 655 41 658 43 660 c 0
 56 670 61 639 63 632 c 0
 72 594 80 555 89 518 c 0
 107 436 131 356 152 275 c 0
 174 194 194 113 224 35 c 1
 254 110 277 190 304 267 c 0
 337 362 375 455 401 552 c 0
 412 593 411 599 423 639 c 0
 425 644 431 671 440 671 c 0
EndSplineSet
EndChar

StartChar: five
Encoding: 53 53 74
Width: 375
VWidth: 0
Flags: W
HStem: 15 18<91.5046 170.28> 420 16<143.308 212.57> 657 18<123.835 314.229>
VStem: 76.2852 12<404.124 600.25> 316.285 19<168.29 295.971>
LayerCount: 2
Back
Fore
SplineSet
96.28515625 394 m 1
 114.28515625 415 137.28515625 436 175.28515625 436 c 0
 220.28515625 436 267.28515625 407 291.28515625 372 c 0
 319.28515625 332 335.28515625 280 335.28515625 228 c 0
 335.28515625 183 323.28515625 139 297.28515625 104 c 0
 254.28515625 47 182.28515625 17 112.28515625 15 c 2
 110.28515625 15 l 2
 88.28515625 15 67.28515625 34 52.28515625 49 c 0
 47.28515625 54 38.28515625 64 40.28515625 72 c 0
 43.28515625 83 55.28515625 72 59.28515625 68 c 0
 82.28515625 43 102.28515625 33 127.28515625 33 c 0
 140.28515625 33 154.28515625 36 170.28515625 40 c 0
 266.28515625 65 316.28515625 145 316.28515625 231 c 0
 316.28515625 261 310.28515625 291 299.28515625 320 c 0
 282.28515625 366 231.28515625 420 177.28515625 420 c 0
 142.28515625 420 119.28515625 399 106.28515625 376 c 0
 103.28515625 370 98.28515625 360 90.28515625 362 c 0
 77.28515625 366 76.28515625 402 76.28515625 418 c 2
 76.28515625 424 l 2
 74.28515625 468 74.28515625 511 72.28515625 555 c 0
 71.28515625 569 70.28515625 585 70.28515625 601 c 0
 70.28515625 610 70.28515625 618 72.28515625 626 c 1
 63.28515625 624 51.28515625 629 60.28515625 640 c 0
 66.28515625 647 77.28515625 654 86.28515625 657 c 0
 125.28515625 672 172.28515625 674 215.28515625 674 c 2
 254.28515625 674 l 2
 270.28515625 674 285.28515625 675 301.28515625 675 c 0
 306.28515625 675 315.28515625 673 314.28515625 666 c 0
 313.28515625 659 299.28515625 657 285.28515625 657 c 0
 274.28515625 657 264.28515625 658 260.28515625 658 c 0
 201.28515625 658 143.28515625 655 86.28515625 640 c 1
 90.28515625 619 91.28515625 597 91.28515625 575 c 0
 91.28515625 540 88.28515625 506 88.28515625 471 c 0
 88.28515625 445 90.28515625 419 96.28515625 394 c 1
EndSplineSet
EndChar

StartChar: emdash
Encoding: 8212 8212 75
Width: 486
VWidth: 0
Flags: W
HStem: 330 16<40.008 178.906> 340 15<162.654 445.614>
LayerCount: 2
Back
Fore
SplineSet
74 346 m 0x80
 121 348 166 355 215 355 c 0
 230 355 244 354 259 354 c 0
 268 354 277 354 286 355 c 0x40
 326 358 368 358 408 354 c 0
 413 353 446 355 446 346 c 0x80
 446 334 424 337 416 338 c 0
 398 339 381 340 363 340 c 2
 344 340 l 2x40
 267 337 189 334 112 332 c 0
 94 331 76 330 58 330 c 0
 51 330 40 329 40 338 c 0
 40 345 50 347 60 347 c 0
 66 347 71 346 74 346 c 0x80
EndSplineSet
Validated: 33
EndChar

StartChar: backslash
Encoding: 92 92 76
Width: 383
VWidth: 0
Flags: W
VStem: 321.579 21<-4.69482 51.832>
LayerCount: 2
Back
Fore
SplineSet
48.5791015625 674 m 0
 58.5791015625 674 63.5791015625 652 66.5791015625 644 c 0
 80.5791015625 613 93.5791015625 581 108.579101562 550 c 0
 171.579101562 416 237.579101562 283 293.579101562 146 c 0
 308.579101562 108 327.579101562 71 338.579101562 32 c 0
 339.579101562 28 342.579101562 17 342.579101562 8 c 0
 342.579101562 1 340.579101562 -5 333.579101562 -5 c 0
 323.579101562 -5 323.579101562 22 321.579101562 30 c 0
 309.579101562 69 291.579101562 107 275.579101562 144 c 0
 216.579101562 280 153.579101562 413 91.5791015625 548 c 0
 76.5791015625 580 62.5791015625 612 47.5791015625 644 c 0
 44.5791015625 651 31.5791015625 674 48.5791015625 674 c 0
EndSplineSet
EndChar

StartChar: plus
Encoding: 43 43 77
Width: 372
VWidth: 0
Flags: W
HStem: 179 16<40.4029 166> 190 18<196.336 331.9>
VStem: 159 17<198.688 339.857> 167 15<110.989 180.718 197 313.25> 174 16<47.1476 159.732>
LayerCount: 2
Back
Fore
SplineSet
159 323 m 4xa0
 159 332 161 340 169 340 c 4
 175 340 176 330 176 321 c 6
 176 308 l 6xa0
 177 271 182 234 182 197 c 5
 220 203 260 205 298 207 c 4
 301 207 306 208 312 208 c 4
 322 208 332 206 332 199 c 6
 332 197 l 6
 330 191 320 190 311 190 c 6
 296 190 l 5
 258 186 220 185 182 181 c 5x50
 191 150 189 109 190 77 c 4
 190 70 195 47 183 47 c 4
 175 47 174 59 174 69 c 6
 174 77 l 6x48
 172 104 167 134 167 161 c 4x50
 167 168 167 175 168 181 c 5
 140 181 111 179 83 179 c 6
 65 179 l 6
 56 179 40 180 40 189 c 6
 40 191 l 6
 43 204 62 195 70 195 c 4
 78 195 85 194 93 194 c 6
 166 197 l 5
 166 233 162 269 160 305 c 4
 160 309 159 317 159 323 c 4xa0
EndSplineSet
EndChar

StartChar: bar
Encoding: 124 124 78
Width: 110
VWidth: 0
Flags: W
VStem: 44 18<393.01 661.452> 55 15<4.8457 247.5>
LayerCount: 2
Back
Fore
SplineSet
40 634 m 0x80
 40 646 41 662 51 662 c 0
 57 662 58 651 58 639 c 0
 58 628 57 616 57 613 c 0
 57 560 61 506 61 453 c 0
 61 448 62 435 62 422 c 0
 62 407 62 393 53 393 c 0
 46 393 44 405 44 418 c 0
 44 430 45 443 45 449 c 0
 45 502 41 556 41 609 c 0
 41 614 40 624 40 634 c 0x80
69 36 m 0
 69 22 68 3 58 3 c 0
 52 3 50 14 50 25 c 0
 50 35 52 45 52 49 c 0
 54 74 55 99 55 125 c 0
 55 154 54 184 53 213 c 0
 53 220 47 242 47 257 c 0
 47 264 49 270 53 271 c 0
 68 273 69 225 69 215 c 0
 70 188 70 161 70 134 c 0x40
 70 107 70 79 69 52 c 0
 69 49 69 43 69 36 c 0
EndSplineSet
Validated: 33
EndChar

StartChar: s
Encoding: 115 115 79
Width: 310
VWidth: 0
Flags: W
HStem: 4 16<90.5955 201.801> 357 17<119.465 218.9>
VStem: 67.3203 15<276.291 325.612> 256.32 15<58.5437 105.275>
LayerCount: 2
Back
Fore
SplineSet
271.3203125 82 m 0
 271.3203125 26 203.3203125 4 142.3203125 4 c 0
 90.3203125 4 48.3203125 22 28.3203125 57 c 0
 25.3203125 62 20.3203125 72 28.3203125 75 c 0
 34.3203125 78 39.3203125 71 42.3203125 67 c 0
 52.3203125 53 62.3203125 41 77.3203125 33 c 0
 94.3203125 25 119.3203125 20 145.3203125 20 c 0
 189.3203125 20 235.3203125 33 252.3203125 63 c 0
 255.3203125 68 256.3203125 74 256.3203125 80 c 0
 256.3203125 99 242.3203125 118 229.3203125 130 c 0
 189.3203125 164 125.3203125 213 88.3203125 252 c 0
 73.3203125 267 67.3203125 284 67.3203125 299 c 0
 67.3203125 335 102.3203125 366 144.3203125 373 c 0
 152.3203125 374 160.3203125 374 168.3203125 374 c 0
 189.3203125 374 212.3203125 371 230.3203125 364 c 0
 235.3203125 362 252.3203125 350 252.3203125 341 c 0
 252.3203125 338 250.3203125 336 246.3203125 335 c 2
 244.3203125 335 l 2
 235.3203125 335 220.3203125 350 211.3203125 352 c 0
 198.3203125 355 182.3203125 357 166.3203125 357 c 0
 126.3203125 357 83.3203125 344 82.3203125 299 c 2
 82.3203125 298 l 2
 82.3203125 278 103.3203125 259 118.3203125 248 c 0
 157.3203125 219 218.3203125 171 251.3203125 133 c 0
 264.3203125 118 271.3203125 100 271.3203125 82 c 0
EndSplineSet
EndChar

StartChar: j
Encoding: 106 106 80
Width: 123
VWidth: 0
Flags: W
HStem: -159 17<-37.4664 34.3412>
VStem: 69 14<-52.9835 360.324>
LayerCount: 2
Back
Fore
SplineSet
61.75 510.379882812 m 0
 79.25 519.5 88 488.719726562 71.75 480.740234375 c 0
 53 471.620117188 48 503.540039062 61.75 510.379882812 c 0
-90 -105 m 0
 -90 -102 -88 -99 -84 -99 c 0
 -73 -99 -49 -128 -41 -132 c 0
 -30 -138 -14 -142 2 -142 c 0
 17 -142 31 -138 40 -129 c 0
 53 -115 56 -93 59 -75 c 0
 67 -25 69 26 69 77 c 0
 69 128 67 179 67 229 c 0
 67 252 67 312 64 335 c 0
 63 342 59 357 66 362 c 0
 79 370 79 348 80 341 c 0
 83 314 83 250 83 223 c 0
 83 186 83 149 83 112 c 0
 83 57 82 2 77 -53 c 0
 74 -83 73 -132 43 -149 c 0
 31 -156 17 -159 2 -159 c 0
 -21 -159 -45 -152 -61 -140 c 0
 -67 -136 -90 -117 -90 -105 c 0
EndSplineSet
EndChar

StartChar: C
Encoding: 67 67 81
Width: 425
VWidth: 0
Flags: W
HStem: 3 18<177.917 284.446> 656 15<210.106 270.636>
VStem: 40 16<225.551 397.355> 349 16<513.1 569.234>
LayerCount: 2
Back
Fore
SplineSet
230 670 m 0
 234 671 237 671 241 671 c 0
 289 671 337 624 355 582 c 0
 362 565 363 548 365 530 c 0
 366 525 368 515 361 513 c 0
 354 511 350 518 349 523 c 0
 345 539 347 554 341 570 c 0
 327 606 285 656 241 656 c 0
 238 656 234 656 230 655 c 0
 160 640 125 574 98 513 c 0
 71 449 56 379 56 309 c 0
 56 259 63 209 79 162 c 0
 91 126 106 90 131 61 c 0
 155 33 192 21 230 21 c 0
 258 21 287 28 309 41 c 0
 333 55 353 68 369 91 c 0
 373 96 385 103 385 90 c 0
 385 81 375 69 371 64 c 0
 350 40 316 23 287 12 c 0
 271 6 253 3 234 3 c 0
 195 3 153 16 127 40 c 0
 98 67 82 108 69 145 c 0
 50 199 40 257 40 316 c 0
 40 399 60 483 100 555 c 0
 132 611 162 659 230 670 c 0
EndSplineSet
EndChar

StartChar: J
Encoding: 74 74 82
Width: 351
VWidth: 0
Flags: W
HStem: 5 14<176.983 240.257> 648 20G<284.05 292.55>
VStem: 280.05 18<513.875 667.88> 293.05 18<136.594 575.675>
LayerCount: 2
Back
Fore
SplineSet
290.049804688 464 m 0xd0
 290.049804688 523 283.049804688 577 280.049804688 633 c 0
 280.049804688 636 280.049804688 641 280.049804688 647 c 0
 280.049804688 657 281.049804688 667 287.049804688 668 c 2
 288.049804688 668 l 2
 297.049804688 668 298.049804688 654 298.049804688 643 c 0
 298.049804688 641 298.049804688 639 298.049804688 637 c 0
 298.049804688 635 298.049804688 633 298.049804688 632 c 0xe0
 302.049804688 592 304.049804688 552 305.049804688 512 c 0
 307.049804688 441 311.049804688 368 311.049804688 295 c 0
 311.049804688 238 309.049804688 182 301.049804688 127 c 0
 295.049804688 84 285.049804688 14 233.049804688 6 c 0
 227.049804688 5 220.049804688 5 213.049804688 5 c 0
 159.049804688 5 97.0498046875 32 65.0498046875 73 c 0
 52.0498046875 89 44.0498046875 112 41.0498046875 133 c 0
 40.0498046875 139 38.0498046875 152 45.0498046875 156 c 0
 50.0498046875 159 54.0498046875 154 55.0498046875 149 c 0
 61.0498046875 129 62.0498046875 111 74.0498046875 92 c 0
 82.0498046875 80 95.0498046875 70 107.049804688 62 c 0
 132.049804688 46 176.049804688 19 213.049804688 19 c 0
 233.049804688 19 250.049804688 27 261.049804688 48 c 0
 286.049804688 96 290.049804688 155 292.049804688 209 c 0
 293.049804688 228 293.049804688 246 293.049804688 264 c 0
 293.049804688 313 290.049804688 361 290.049804688 411 c 0
 290.049804688 428 290.049804688 446 290.049804688 464 c 0xd0
EndSplineSet
EndChar

StartChar: W
Encoding: 87 87 83
Width: 632
VWidth: 0
Flags: W
HStem: 12 18<180.052 235.098> 20 17<408.5 457.655> 650 20G<578 586>
VStem: 40 16<404.6 643.516> 314 17<190.489 273.902> 574 18<452.979 669.645>
LayerCount: 2
Back
Fore
SplineSet
574 658 m 0x7c
 574 665 575 670 581 670 c 0
 591 670 592 650 592 640 c 0
 592 638 592 637 592 636 c 0
 592 594 592 551 588 510 c 0
 578 400 574 286 546 178 c 0
 533 128 516 74 477 38 c 0
 463 25 449 20 434 20 c 0x7c
 417 20 400 27 385 41 c 0
 354 70 324 129 324 174 c 0
 324 177 325 181 325 184 c 1
 316 172 316 149 311 134 c 0
 299 94 278 45 241 22 c 0
 230 15 219 12 208 12 c 0
 164 12 125 62 111 100 c 0
 95 142 88 187 79 230 c 0
 59 321 41 416 41 510 c 0
 41 533 40 556 40 579 c 0
 40 594 40 610 42 625 c 0
 43 635 42 656 52 662 c 0
 58 665 69 660 68 652 c 0
 67 645 60 641 59 634 c 0
 57 616 56 597 56 579 c 0
 56 557 57 536 57 514 c 0
 58 392 83 266 113 148 c 0
 126 98 147 41 204 30 c 0
 206 30 208 30 210 30 c 0xbc
 231 30 248 48 259 64 c 0
 299 120 309 181 314 259 c 0
 314 264 315 272 321 274 c 0
 329 276 330 265 331 260 c 0
 339 185 344 124 385 68 c 0
 400 49 416 37 433 37 c 0
 458 37 480 64 492 84 c 0
 524 138 538 205 546 267 c 0
 558 354 564 439 572 526 c 0
 576 562 575 600 576 636 c 0
 576 641 574 650 574 658 c 0x7c
EndSplineSet
Validated: 1
EndChar

StartChar: six
Encoding: 54 54 84
Width: 438
VWidth: 0
Flags: W
HStem: 40 16<153.68 264.824> 388 15<244.855 316.854>
VStem: 40 16<232.094 388.19> 384 14<194.722 304.49>
LayerCount: 2
Back
Fore
SplineSet
205 680 m 0
 208 680 213 677 213 673 c 0
 213 664 193 652 190 648 c 0
 164 617 142 581 122 546 c 0
 81 475 56 391 56 308 c 0
 56 247 70 186 101 132 c 1
 117 226 140 326 223 387 c 0
 238 398 258 403 279 403 c 0
 313 403 349 389 367 364 c 0
 390 332 398 290 398 250 c 2
 398 236 l 2
 395 184 373 110 331 77 c 0
 302 55 266 46 231 42 c 0
 221 41 211 40 200 40 c 0
 180 40 159 43 141 54 c 0
 103 78 79 130 64 172 c 0
 48 218 40 265 40 312 c 0
 40 401 68 490 115 568 c 0
 134 599 154 632 178 660 c 0
 183 666 194 680 205 680 c 0
384 255 m 0
 384 325 346 388 280 388 c 0
 225 388 196 341 173 304 c 0
 165 291 156 278 149 264 c 0
 131 229 124 188 119 149 c 0
 118 140 116 129 116 119 c 0
 116 87 142 65 167 59 c 0
 178 56 190 56 201 56 c 0
 253 56 297 66 327 94 c 0
 365 129 384 200 384 255 c 0
EndSplineSet
Validated: 1
EndChar

StartChar: equal
Encoding: 61 61 85
Width: 244
VWidth: 0
Flags: W
HStem: 256 15<47.0999 106.689> 262 17<52.0525 182.299> 406 12<40.0899 176.939>
LayerCount: 2
Back
Fore
SplineSet
178.626953125 423 m 0x20
 185.626953125 424 215.626953125 420 199.626953125 409 c 0
 195.626953125 406 189.626953125 406 183.626953125 406 c 2
 167.626953125 406 l 2
 137.626953125 404 107.626953125 402 77.626953125 402 c 0
 73.626953125 402 66.626953125 401 59.626953125 401 c 0
 51.626953125 401 44.626953125 402 41.626953125 407 c 0
 32.626953125 421 63.626953125 418 69.626953125 418 c 0
 105.626953125 418 142.626953125 419 178.626953125 423 c 0x20
84.626953125 277 m 0
 97.626953125 278 111.626953125 279 125.626953125 279 c 0
 143.626953125 279 161.626953125 278 179.626953125 278 c 0
 185.626953125 278 213.626953125 274 197.626953125 264 c 0
 193.626953125 262 188.626953125 261 182.626953125 261 c 0
 175.626953125 261 168.626953125 262 163.626953125 262 c 0x60
 137.626953125 262 110.626953125 261 84.626953125 260 c 0
 77.626953125 260 66.626953125 256 57.626953125 256 c 0
 47.626953125 256 42.626953125 266 51.626953125 271 c 0xa0
 60.626953125 277 74.626953125 276 84.626953125 277 c 0
EndSplineSet
EndChar

StartChar: asciitilde
Encoding: 126 126 86
Width: 336
VWidth: 0
Flags: W
HStem: 276 16<179.989 235.266> 347 19<70.1775 107.657>
LayerCount: 2
Back
Fore
SplineSet
285.943359375 366 m 0
 302.943359375 371 294.943359375 340 291.943359375 334 c 0
 281.943359375 313 254.943359375 290 233.943359375 281 c 0
 225.943359375 278 217.943359375 276 209.943359375 276 c 0
 177.943359375 276 151.943359375 301 127.943359375 321 c 0
 117.943359375 329 99.943359375 347 85.943359375 347 c 0
 71.943359375 347 61.943359375 326 57.943359375 316 c 0
 55.943359375 311 54.943359375 301 47.943359375 300 c 0
 36.943359375 299 39.943359375 314 41.943359375 320 c 0
 47.943359375 337 61.943359375 366 82.943359375 366 c 0
 84.943359375 366 85.943359375 365 87.943359375 365 c 0
 131.943359375 355 161.943359375 292 207.943359375 292 c 0
 236.943359375 292 259.943359375 318 273.943359375 338 c 0
 277.943359375 344 277.943359375 364 285.943359375 366 c 0
EndSplineSet
EndChar

StartChar: comma
Encoding: 44 44 87
Width: 114
VWidth: 0
Flags: W
HStem: -8 108
VStem: 57 17<21.5156 99.6463>
LayerCount: 2
Back
Fore
SplineSet
56 100 m 0
 58 101 60 102 61 102 c 0
 73 102 74 67 74 52 c 0
 74 29 70 1 51 -8 c 0
 46 -10 40 -9 40 -2 c 0
 41 7 50 13 53 21 c 0
 57 32 57 43 57 55 c 2
 57 68 l 2
 57 74 53 84 53 92 c 0
 53 96 54 98 56 100 c 0
EndSplineSet
Validated: 1
EndChar

StartChar: braceright
Encoding: 125 125 88
Width: 298
VWidth: 0
Flags: W
HStem: -7 16<62.5346 130.037> 414 17<202.719 235.393> 676 17<56.7806 102.078>
VStem: 111 17<389.565 536.368> 123 16<501.713 647.643> 148 14<48.6875 247.11>
LayerCount: 2
Back
Fore
SplineSet
218 431 m 0xf4
 240 431 258 409 258 381 c 0
 258 346 233 307 199 307 c 0
 191 307 183 309 174 314 c 1
 169 252 165 190 162 128 c 0
 160 92 163 56 152 20 c 0
 145 -1 129 -7 111 -7 c 0
 102 -7 93 -6 84 -4 c 0
 77 -3 60 -2 57 6 c 0
 51 24 98 9 109 9 c 0
 122 9 134 14 138 32 c 0
 146 68 148 105 148 142 c 0
 148 162 147 183 147 203 c 0
 147 244 149 285 160 324 c 1
 139 334 126 367 119 388 c 0
 113 407 111 426 111 446 c 0xf4
 111 493 123 541 123 587 c 0
 123 614 122 651 100 670 c 0
 95 674 89 676 82 676 c 0
 77 676 71 675 66 673 c 0
 60 670 49 661 43 667 c 0
 41 669 40 670 40 672 c 0
 40 685 70 693 80 693 c 0
 125 693 139 641 139 592 c 0xec
 139 545 128 495 128 449 c 0
 128 411 135 376 162 344 c 1
 172 375 178 431 218 431 c 0xf4
176 330 m 1
 217 308 253 356 240 396 c 0
 236 409 228 414 220 414 c 0
 211 414 201 407 195 396 c 0
 184 377 183 353 176 330 c 1
EndSplineSet
Validated: 33
EndChar

StartChar: c
Encoding: 99 99 89
Width: 342
VWidth: 0
Flags: W
HStem: -5 15<146.229 235.779> 356 16<130.511 212.897>
VStem: 40 16<120.273 255.035> 253 24<279.373 336.083>
LayerCount: 2
Back
Fore
SplineSet
40 184 m 0
 40 274 76 372 165 372 c 0
 199 372 250 360 267 338 c 0
 271 332 277 317 277 302 c 0
 277 295 275 278 267 278 c 0
 260 278 258 319 253 326 c 0
 240 344 192 356 164 356 c 0
 123 356 93 324 77 294 c 0
 63 269 56 231 56 191 c 0
 56 131 72 67 107 38 c 0
 129 20 161 10 192 10 c 0
 213 10 234 15 251 24 c 0
 272 35 277 51 287 71 c 0
 289 75 293 80 298 77 c 0
 305 73 300 61 298 55 c 0
 290 35 279 20 259 10 c 0
 239 0 217 -5 195 -5 c 0
 155 -5 113 4 85 35 c 0
 56 67 40 125 40 184 c 0
EndSplineSet
EndChar

StartChar: m
Encoding: 109 109 90
Width: 528
VWidth: 0
Flags: W
HStem: 334 20G<43.1328 52.6328> 350 18<156.899 215.792 386.341 422.443>
VStem: 41.6328 17<144 353.593> 48.6328 21<2.06013 273.698> 283.633 18<115.009 185.617> 467.633 20<4.12563 225.675>
LayerCount: 2
Back
Fore
SplineSet
65.6328125 144 m 1xac
 67.6328125 203 87.6328125 286 121.6328125 332 c 0
 139.6328125 357 163.6328125 368 187.6328125 368 c 0
 204.6328125 368 220.6328125 364 236.6328125 350 c 0
 248.6328125 341 257.6328125 327 265.6328125 314 c 0
 281.6328125 288 288.6328125 261 298.6328125 232 c 1
 304.6328125 280 334.6328125 332 372.6328125 355 c 0
 382.6328125 361 394.6328125 365 406.6328125 365 c 0
 420.6328125 365 434.6328125 360 443.6328125 348 c 0
 457.6328125 329 462.6328125 303 467.6328125 281 c 0
 483.6328125 212 487.6328125 143 487.6328125 65 c 0
 487.6328125 58 487.6328125 50 487.6328125 42 c 0
 487.6328125 34 487.6328125 11 481.6328125 5 c 0
 474.6328125 -2 467.6328125 8 467.6328125 15 c 0
 467.6328125 17 467.6328125 20 467.6328125 22 c 0
 467.6328125 40 470.6328125 66 470.6328125 84 c 0
 470.6328125 150 464.6328125 220 448.6328125 284 c 0
 442.6328125 307 436.6328125 346 406.6328125 346 c 0
 388.6328125 346 374.6328125 335 361.6328125 322 c 0
 327.6328125 290 312.6328125 234 305.6328125 186 c 0
 302.6328125 167 303.6328125 151 301.6328125 132 c 0
 300.6328125 126 299.6328125 115 292.6328125 115 c 0
 285.6328125 115 283.6328125 127 283.6328125 142 c 0
 283.6328125 159 285.6328125 178 285.6328125 186 c 0
 284.6328125 236 266.6328125 286 235.6328125 323 c 0
 222.6328125 340 204.6328125 350 185.6328125 350 c 0
 144.6328125 350 124.6328125 306 112.6328125 277 c 0
 90.6328125 220 80.6328125 152 74.6328125 91 c 0
 72.6328125 68 69.6328125 44 69.6328125 21 c 0
 69.6328125 14 68.5517578125 3.1318359375 60.6328125 2 c 0
 46.6328125 0 48.6328125 22 48.6328125 39 c 0x5c
 48.6328125 51 47.6328125 61 47.6328125 65 c 4
 45.6328125 136 42.6328125 207 41.6328125 279 c 0
 41.6328125 289 41.6328125 298 41.6328125 308 c 0
 41.6328125 318 41.6328125 326 40.6328125 336 c 0
 39.6328125 342 38.6328125 354 47.6328125 354 c 0
 57.6328125 354 59.6328125 339 59.6328125 326 c 0
 59.6328125 318 58.6328125 311 58.6328125 307 c 0
 58.6328125 252 63.6328125 199 63.6328125 144 c 1
 65.6328125 144 l 1xac
EndSplineSet
EndChar

StartChar: G
Encoding: 71 71 91
Width: 526
VWidth: 0
Flags: W
HStem: 7 18<221.698 316.057> 331 20<263.235 353.359> 656 15<259.438 330.021>
VStem: 40 16<237.703 389.84> 380 16<581.149 619.48> 467 16<25.0981 300.763>
LayerCount: 2
Back
Fore
SplineSet
447 265 m 1
 452 254 455 241 455 227 c 0
 455 192 440 152 426 127 c 0
 395 72 348 7 275 7 c 0
 241 7 204 20 175 36 c 0
 115 67 74 134 56 199 c 0
 45 237 40 277 40 317 c 0
 40 400 64 482 115 549 c 0
 159 607 227 671 299 671 c 0
 320 671 340 665 361 653 c 0
 380 643 392 627 396 605 c 0
 397 599 401 584 393 581 c 0
 383 577 381 595 380 601 c 0
 373 632 347 644 320 652 c 0
 312 654 304 656 296 656 c 0
 232 656 164 585 129 539 c 0
 81 476 56 395 56 314 c 0
 56 249 72 184 106 129 c 0
 141 74 204 25 271 25 c 0
 277 25 283 25 290 26 c 0
 352 35 409 112 427 170 c 0
 436 199 431 226 435 255 c 0
 436 262 441 264 447 265 c 1
263 348 m 0
 268 350 274 351 280 351 c 0
 294 351 310 347 321 346 c 0
 358 340 394 336 431 331 c 0
 447 329 470 325 478 310 c 0
 482 302 483 291 483 280 c 0
 483 243 483 205 483 168 c 0
 483 132 485 95 485 59 c 0
 485 55 486 49 486 43 c 0
 486 35 485 27 479 25 c 0
 478 25 477 24 476 24 c 0
 470 24 469 35 469 44 c 2
 469 55 l 2
 469 90 467 125 467 160 c 2
 467 259 l 2
 467 265 468 272 468 279 c 0
 468 287 467 296 463 301 c 0
 455 313 434 313 421 315 c 0
 382 320 343 327 304 332 c 1
 297 332 l 2
 290 332 282 331 275 331 c 0
 271 331 267 332 263 333 c 0
 256 336 256 345 263 348 c 0
EndSplineSet
Validated: 1
EndChar

StartChar: K
Encoding: 75 75 92
Width: 390
VWidth: 0
Flags: W
HStem: 644 20G<45.5 53.5>
VStem: 40 18<546.797 663.993> 48 30<343.125 401.44> 70 17<8.09594 322.788>
LayerCount: 2
Back
Fore
SplineSet
49 664 m 0xc0
 58 664 58 656 58 648 c 0xc0
 58 630 59 614 61 596 c 0
 68 523 68 485 77 417 c 1
 126 487 197 541 252 607 c 0
 264 620 274 640 289 650 c 0
 295 654 306 652 304 642 c 0
 301 625 273 603 263 590 c 0
 221 540 173 496 129 448 c 0
 109 427 78 405 78 374 c 0xa0
 78 372 79 369 79 367 c 0
 82 336 125 300 145 279 c 0
 199 220 250 157 296 92 c 0
 310 73 322 53 336 35 c 0
 340 28 350 19 350 10 c 0
 350 -5 333 7 329 13 c 0
 314 34 299 56 285 76 c 0
 222 164 152 246 81 325 c 1
 87 285 89 242 89 199 c 0
 89 170 88 140 87 112 c 0
 87 100 88 71 88 47 c 0
 88 35 88 25 87 19 c 0
 86 12 79 1 71 8 c 0
 68 10 67 15 67 20 c 0
 67 27 69 36 69 41 c 0
 70 72 70 144 70 175 c 0x90
 70 229 70 284 64 338 c 0
 63 351 48 357 48 369 c 0xa0
 48 381 59 390 60 402 c 0
 60 408 61 415 61 421 c 0
 61 457 54 496 51 531 c 0
 45 578 44 578 41 627 c 0
 41 630 40 637 40 644 c 0
 40 654 42 664 49 664 c 0xc0
EndSplineSet
EndChar

StartChar: X
Encoding: 88 88 93
Width: 470
VWidth: 0
Flags: W
HStem: 318 36<220.559 236.462>
VStem: 217.07 24<318.778 352.897>
LayerCount: 2
Back
Fore
SplineSet
229.0703125 354 m 1
 268.0703125 437 314.0703125 516 355.0703125 598 c 0
 366.0703125 619 374.0703125 641 385.0703125 662 c 0
 388.0703125 667 400.0703125 680 404.0703125 668 c 0
 406.0703125 661 398.0703125 652 396.0703125 646 c 0
 361.0703125 564 318.0703125 489 278.0703125 412 c 0
 267.0703125 392 241.0703125 360 241.0703125 336 c 0
 241.0703125 318 268.0703125 287 278.0703125 272 c 0
 312.0703125 218 345.0703125 163 378.0703125 108 c 0
 386.0703125 95 410.0703125 48 419.0703125 36 c 0
 423.0703125 31 430.0703125 25 430.0703125 18 c 0
 430.0703125 6 415.0703125 14 411.0703125 18 c 0
 398.0703125 31 373.0703125 83 364.0703125 98 c 0
 334.0703125 148 303.0703125 198 273.0703125 248 c 0
 259.0703125 270 240.0703125 293 231.0703125 318 c 1
 227.0703125 318 l 1
 220.0703125 292 202.0703125 268 190.0703125 244 c 0
 161.0703125 189 130.0703125 134 98.0703125 80 c 0
 86.0703125 61 76.0703125 37 61.0703125 20 c 0
 57.0703125 15 41.0703125 7 40.0703125 19 c 0
 39.0703125 26 49.0703125 33 53.0703125 38 c 0
 65.0703125 55 74.0703125 74 85.0703125 92 c 0
 121.0703125 150 154.0703125 211 185.0703125 272 c 0
 193.0703125 288 217.0703125 317 217.0703125 335 c 0
 217.0703125 356 192.0703125 384 183.0703125 402 c 0
 144.0703125 480 105.0703125 557 65.0703125 634 c 0
 61.0703125 641 54.0703125 652 56.0703125 660 c 0
 58.0703125 669 67.0703125 667 71.0703125 660 c 0
 83.0703125 638 94.0703125 614 106.0703125 592 c 0
 147.0703125 515 193.0703125 435 227.0703125 354 c 1
 229.0703125 354 l 1
EndSplineSet
EndChar

StartChar: seven
Encoding: 55 55 94
Width: 405
VWidth: 0
Flags: W
HStem: 626 14<200.073 348.117> 631 21<40.6692 276.894>
VStem: 40.5205 324
LayerCount: 2
Back
Fore
SplineSet
338.520507812 643 m 0xa0
 354.520507812 643 364.520507812 637 364.520507812 621 c 0
 364.520507812 613 361.520507812 603 359.520507812 596 c 0
 352.520507812 567 344.520507812 538 336.520507812 510 c 0
 304.520507812 397 277.520507812 283 245.520507812 170 c 0
 235.520507812 135 227.520507812 99 216.520507812 64 c 0
 214.520507812 57 211.520507812 36 200.520507812 36 c 0
 199.520507812 36 198.520507812 37 197.520507812 37 c 0
 194.520507812 38 193.520507812 41 193.520507812 44 c 0
 193.520507812 53 200.520507812 66 201.520507812 70 c 0
 212.520507812 105 221.520507812 141 230.520507812 176 c 0
 255.520507812 271 280.520507812 365 306.520507812 460 c 0
 321.520507812 514 341.520507812 570 348.520507812 626 c 1
 344.520507812 626 340.520507812 626 336.520507812 626 c 0xa0
 261.520507812 626 187.520507812 634 112.520507812 634 c 0
 90.5205078125 634 69.5205078125 632 48.5205078125 631 c 0
 42.5205078125 631 38.5205078125 636 40.5205078125 642 c 0
 43.5205078125 650 57.5205078125 652 72.5205078125 652 c 0x60
 87.5205078125 652 103.520507812 650 110.520507812 650 c 0
 174.520507812 650 237.520507812 644 300.520507812 640 c 1
 302.520507812 640 l 2
 311.520507812 640 325.520507812 643 338.520507812 643 c 0xa0
EndSplineSet
EndChar

StartChar: exclam
Encoding: 33 33 95
Width: 144
VWidth: 0
Flags: W
HStem: 643 20G<74.5 79>
VStem: 55 34<13.7088 63.718> 56 16<220.1 453.524> 68 17<413.039 661.855>
LayerCount: 2
Back
Fore
SplineSet
72 662 m 0xa0
 73 662 74 663 75 663 c 0
 83 663 85 642 85 622 c 0x90
 85 607 84 593 84 586 c 0
 84 511 74 365 74 290 c 0
 74 273 72 255 72 238 c 0
 72 232 73 222 66 220 c 0
 57 217 56 230 56 236 c 0xa0
 56 256 59 276 59 296 c 0
 59 371 68 517 68 592 c 2
 68 644 l 2x90
 68 650 65 659 72 662 c 0xa0
81 63 m 0
 86 58 89 52 89 45 c 0
 89 29 75 11 65 11 c 0
 57 11 55 23 55 33 c 0xc0
 55 37 55 42 56 44 c 0xa0
 58 51 60 58 63 64 c 0
 69 74 76 68 81 63 c 0
EndSplineSet
EndChar

StartChar: underscore
Encoding: 95 95 96
Width: 419
VWidth: 0
Flags: W
HStem: 12 15<45.3202 376.179>
LayerCount: 2
Back
Fore
SplineSet
199.41796875 10 m 0
 164.41796875 10 128.41796875 12 93.41796875 12 c 0
 84.41796875 12 75.41796875 12 66.41796875 12 c 0
 59.41796875 12 53.41796875 12 47.41796875 13 c 0
 40.41796875 14 36.41796875 24 44.41796875 28 c 0
 63.41796875 38 98.41796875 27 119.41796875 27 c 0
 158.41796875 26 197.41796875 25 236.41796875 25 c 2
 317.41796875 28 l 2
 328.41796875 29 340.41796875 30 352.41796875 30 c 0
 363.41796875 30 386.41796875 27 376.41796875 16 c 0
 371.41796875 11 360.41796875 13 353.41796875 13 c 0
 334.41796875 13 316.41796875 11 297.41796875 11 c 0
 265.41796875 11 232.41796875 10 199.41796875 10 c 0
EndSplineSet
EndChar

StartChar: period
Encoding: 46 46 97
Width: 134
VWidth: 0
Flags: W
HStem: 25 63<42.5156 91.199>
VStem: 40 54<25.6492 85.6474>
LayerCount: 2
Back
Fore
SplineSet
66 87 m 0
 68 87 70 88 72 88 c 0
 87 88 94 76 94 62 c 0
 94 46 85 29 70 25 c 1
 66 25 l 2
 52 25 41 44 40 57 c 2
 40 59 l 2
 40 73 53 84 66 87 c 0
EndSplineSet
Validated: 1
EndChar

StartChar: q
Encoding: 113 113 98
Width: 396
VWidth: 0
Flags: W
HStem: 3 17<90.1633 152.739> 350 19<175.417 259.677>
VStem: 40 20<59.4905 178.937> 322 24<-31.4278 188.109 203.05 270.298> 334 21<-187.852 7.30435>
LayerCount: 2
Back
Fore
SplineSet
334 -156 m 2xe8
 334 -74 329 -69 327 11 c 0
 326 50 322 91 322 131 c 0
 322 151 323 170 326 189 c 1
 324 189 l 1
 309 144 275 101 242 70 c 0
 220 50 198 33 171 18 c 0
 152 7 135 3 120 3 c 0
 70 3 40 53 40 116 c 0
 40 198 81 299 148 348 c 0
 167 362 191 369 216 369 c 0
 269 369 324 338 339 286 c 1
 348 286 356 282 356 271 c 0
 356 256 350 243 348 229 c 0
 346 206 346 181 346 158 c 0xf0
 346 50 355 19 355 -89 c 2
 355 -164 l 2
 355 -172 356 -185 347 -188 c 0
 346 -188 345 -188 344 -188 c 0
 335 -188 334 -176 334 -166 c 2
 334 -156 l 2xe8
219 350 m 0
 118 350 68 210 61 128 c 0
 61 124 60 119 60 114 c 0
 60 76 72 20 115 20 c 2
 117 20 l 1
 195 25 263 119 297 181 c 0
 308 200 325 224 327 245 c 0
 329 255 324 261 321 270 c 0
 309 314 266 350 219 350 c 0
EndSplineSet
EndChar

